<svg width="45" height="31" viewBox="0 0 45 31" fill="none" xmlns="http://www.w3.org/2000/svg">
<path d="M45 1.54459V29.2533C45 30.0423 44.3514 30.691 43.5624 30.691H1.43754C0.648545 30.691 0 30.0423 0 29.2533V1.54459C0 0.755601 0.648545 0.113647 1.43754 0.113647H43.5624C44.3514 0.113647 45 0.755601 45 1.54459Z" fill="url(#paint0_linear_1_493)"/>
<g opacity="0.2">
<path d="M26.3119 9.19019C26.2146 9.08077 26.1538 8.98356 26.0323 9.03823C25.9107 9.0929 25.9107 9.17191 25.783 9.07471C25.6554 8.9775 25.7101 8.86192 25.4243 8.75865C25.1386 8.65529 25.0779 8.59456 24.7678 8.55202C24.4578 8.50948 24.2329 8.46694 24.2146 8.46694C24.1964 8.46694 24.2815 8.52161 24.1599 8.58243C24.0384 8.64325 23.9411 8.65538 23.8195 8.57637C23.698 8.49735 23.7041 8.47301 23.4974 8.49129C23.2907 8.50957 23.1692 8.55817 23.078 8.5703C22.9869 8.58243 23.078 8.56424 22.9382 8.46694C22.7983 8.36965 22.8956 8.31498 22.6524 8.33317C22.4093 8.35145 22.306 8.3627 22.2452 8.32966C22.1843 8.2967 22.2573 8.12645 22.0202 8.0535C21.7832 7.98056 21.7345 8.03531 21.613 8.01703C21.4914 7.99884 21.4975 7.96843 21.151 7.94408C20.8045 7.91974 20.8227 7.97449 20.5857 8.04744C20.3487 8.12039 20.2878 8.12039 20.069 8.10826C19.8501 8.09613 19.9049 8.22981 19.7711 8.24809C19.6374 8.26629 19.4247 8.13261 19.4003 8.05359C19.376 7.97458 19.5827 7.8895 19.4003 7.81655C19.2179 7.7436 18.8775 7.60377 18.8107 7.62811C18.7438 7.65246 18.7802 7.76188 18.6587 7.79221C18.5371 7.82262 18.3791 7.82262 18.1907 7.73754C18.0022 7.65246 17.9293 7.61036 17.7287 7.6253C17.5282 7.64024 17.4187 7.70106 17.2485 7.71319C17.0782 7.72532 16.975 7.65237 17.0905 7.5977C17.206 7.54304 17.3518 7.37886 17.3518 7.29984C17.3518 7.22083 17.4369 7.05058 17.2424 7.03239C17.0479 7.0142 17.0114 7.14788 16.8291 7.03239C16.6467 6.9169 16.4097 6.91084 16.3428 6.94731C16.2759 6.98379 16.2759 7.04461 16.1604 7.0628C16.0449 7.081 16.0875 7.18435 15.9476 7.22083C15.8078 7.2573 15.8261 7.14788 15.5039 7.17829C15.1817 7.2087 14.8717 7.25124 14.7927 7.34238C14.7136 7.43352 14.8109 7.53688 14.6407 7.6159C14.4704 7.69491 14.0814 7.63409 14.0328 7.70098C13.9842 7.76786 14.2456 7.99884 14.0693 8.1022C13.893 8.20556 13.7836 8.02925 13.3764 8.1022C12.9691 8.17515 13.0177 8.16302 12.8658 8.25416C12.7139 8.3453 12.6835 8.28457 12.5923 8.41219C12.5012 8.5398 12.2276 8.65538 12.0391 8.65538C11.8507 8.65538 11.7717 8.53989 11.5285 8.63719C11.2854 8.73448 11.3218 8.80128 10.9388 8.77096C10.5559 8.74055 10.3979 8.74661 10.3249 8.7953C10.252 8.84391 10.252 8.96555 10.0635 9.02021C9.87508 9.07488 9.58329 9.17218 9.51034 9.15398C9.43739 9.13579 9.18822 9.25734 9.01797 9.27554C8.84773 9.29382 8.75052 9.2816 8.69585 9.21472C8.6411 9.14783 8.58037 9.03234 8.66544 9.06882C8.75052 9.10529 8.82347 9.1539 8.97543 9.14783C9.1274 9.14177 9.29764 9.02021 9.26117 8.95333C9.22469 8.88644 9.2551 8.78924 8.95724 8.71629C8.65938 8.64334 8.53176 8.65547 8.30685 8.49138C8.08194 8.32728 8.39193 8.21786 7.80236 8.27859C7.2127 8.33941 7.05467 8.40015 6.81763 8.57645C6.58059 8.75276 6.5319 8.90473 6.28879 9.11742C6.04569 9.3302 6.13077 9.39094 5.82684 9.5429C5.52291 9.69486 5.47431 9.62191 5.38308 9.85289C5.29185 10.0839 5.23112 10.3513 5.41956 10.4C5.60799 10.4486 5.80249 10.3635 5.89979 10.3271C5.99708 10.2906 6.07003 10.3575 6.08216 10.4669C6.09429 10.5763 6.10036 10.7587 6.222 10.7829C6.34355 10.8073 6.59887 10.6371 6.58674 10.4608C6.57461 10.2845 6.53207 10.163 6.65363 9.98666C6.77518 9.81035 6.85419 9.68273 6.9819 9.62191C7.10952 9.56109 7.28582 9.45176 7.21894 9.5915C7.15206 9.73134 7.0305 9.89543 7.11558 10.0353C7.20066 10.1751 7.39516 10.0778 7.44385 10.2176C7.49246 10.3575 7.37697 10.4912 7.34656 10.5398C7.31615 10.5884 7.41951 10.6493 7.27967 10.7466C7.13984 10.8438 7.0487 10.9471 6.89673 11.0626C6.74477 11.1781 6.29495 11.2571 6.19159 11.2329C6.08823 11.2085 5.91807 11.2329 5.90585 11.093C5.89372 10.9532 6.05782 10.8012 5.88766 10.7343C5.71742 10.6675 5.52898 10.7587 5.47431 10.9957C5.41956 11.2328 5.33448 11.2753 5.19473 11.3908C5.0549 11.5063 5.17039 11.8588 4.76319 11.9257C4.3559 11.9926 4.12493 11.8953 4.15534 12.0412C4.18575 12.1871 4.44107 12.0959 4.44713 12.3391C4.4532 12.5822 4.51402 12.6673 4.33771 12.7159C4.1614 12.7645 4.11886 12.6734 3.88182 12.7524C3.64478 12.8314 3.65691 13.1293 3.60831 13.2569C3.5597 13.3845 3.53536 13.5 3.69338 13.5548C3.85141 13.6094 4.10673 13.7067 4.29517 13.6277C4.48361 13.5487 4.59303 13.5366 4.61738 13.3907C4.64172 13.2448 4.70246 13.1536 4.83016 13.1293C4.95778 13.1049 5.04294 12.959 5.11581 12.874C5.18875 12.7889 5.11581 12.8193 5.30424 12.8254C5.49268 12.8314 5.66899 12.6308 5.73579 12.6855C5.80267 12.7402 6.00324 12.8558 6.13085 12.9773C6.25847 13.0989 6.43478 13.1353 6.40437 13.3177C6.37396 13.5001 6.36183 13.7116 6.48338 13.6575C6.60494 13.6034 6.5624 13.4393 6.64141 13.3603C6.72042 13.2812 6.82378 13.3542 6.81165 13.2144C6.79953 13.0745 6.59281 13.038 6.48338 12.9104C6.37396 12.7828 6.28888 12.643 6.42256 12.6855C6.55624 12.7281 6.81157 12.8435 6.83591 12.9408C6.86026 13.0381 7.08517 13.2387 7.10943 13.4271C7.13377 13.6156 7.26746 13.7858 7.32828 13.6885C7.3891 13.5912 7.33434 13.5183 7.46811 13.494C7.60179 13.4697 7.55319 13.3725 7.62614 13.2448C7.69909 13.1171 7.89965 13.3056 7.9726 13.0685C8.04555 12.8314 7.88146 12.7498 8.06374 12.6204C8.24612 12.491 8.32513 12.4059 8.3798 12.5214C8.43447 12.6369 8.5743 12.7585 8.64119 12.6369C8.70807 12.5154 8.51963 12.4789 8.67766 12.3877C8.83569 12.2965 8.97552 12.1871 8.93298 12.3451C8.89044 12.5031 8.82962 12.6065 8.93905 12.7159C9.04847 12.8254 9.37059 12.8922 9.19437 12.9894C9.01806 13.0867 8.76283 13.032 8.5257 13.1353C8.28866 13.2387 8.25218 13.19 8.19136 13.3846C8.13054 13.5791 8.12448 13.6399 8.32504 13.6399C8.52561 13.6399 8.61684 13.5001 8.67151 13.6764C8.72618 13.8527 8.71405 14.2478 8.62897 14.2842C8.54389 14.3207 8.50742 14.2661 8.13054 14.3086C7.75367 14.3511 7.77186 14.4424 7.46793 14.2903C7.16401 14.1383 7.09106 13.9499 6.98164 14.1383C6.87221 14.3268 6.95122 14.4227 6.71418 14.3748C6.47714 14.3268 6.6473 14.2235 6.33124 14.1445C6.01519 14.0655 5.95437 14.0898 5.95437 13.95C5.95437 13.8102 5.99691 13.6278 5.74765 13.6096C5.49839 13.5914 5.06079 13.6947 4.7021 13.798C4.34342 13.9014 4.41637 13.7737 4.00302 13.9196C3.58967 14.0655 3.33435 14.1141 3.29181 14.339C3.24927 14.5639 3.10944 14.6915 3.0183 14.8132C2.92715 14.9347 2.87846 15.4697 2.8542 15.7979C2.82986 16.1262 2.91502 15.9742 2.82379 16.2173C2.73256 16.4605 2.98789 16.8434 3.09124 16.9467C3.1946 17.0501 3.52894 17.3783 3.74164 17.4026C3.95442 17.427 3.93614 17.3236 4.26441 17.3722C4.59268 17.4208 4.58662 17.2324 4.92095 17.3175C5.25529 17.4026 5.37684 17.4634 5.57134 17.5668C5.76584 17.6701 5.78413 17.7552 5.78413 18.0045C5.78413 18.2537 5.79625 18.0653 5.97256 18.4178C6.14887 18.7704 6.45886 19.0986 6.27649 19.4026C6.09412 19.7065 6.0151 19.7612 6.13059 20.0469C6.24608 20.3326 6.56829 20.9101 6.60476 21.2019C6.64123 21.4937 6.55009 21.5118 6.58657 21.6882C6.62304 21.8645 6.95131 22.059 7.24917 21.9374C7.54704 21.8159 7.63818 21.8098 7.88137 21.5849C8.12448 21.36 8.36767 21.5302 8.55004 21.0621C8.73242 20.5941 8.6716 20.5393 8.75061 20.3509C8.82962 20.1625 9.30379 19.8889 9.32199 19.5485C9.34018 19.2081 9.21863 18.9528 9.26117 18.6246C9.30371 18.2964 9.33412 18.0107 9.65017 17.7493C9.96623 17.4879 10.0392 17.7433 10.258 17.2509C10.4769 16.7585 10.7383 16.637 10.4951 16.6431C10.2519 16.6491 9.77779 16.8436 9.57722 16.7342C9.37666 16.6248 9.04838 16.1263 8.9815 15.8954C8.91461 15.6644 8.93896 15.7799 8.82347 15.4516C8.70798 15.1233 8.59856 14.9532 8.54996 14.8255C8.50135 14.6979 8.47094 14.4729 8.61684 14.6553C8.76274 14.8377 8.90257 15.1112 9.09708 15.5306C9.29158 15.95 9.40707 16.2722 9.57731 16.3391C9.74755 16.406 9.80222 16.485 10.0575 16.3817C10.3129 16.2783 10.404 16.2662 10.6472 16.1324C10.8903 15.9986 11.0362 15.9744 11.2125 15.7981C11.3888 15.6218 11.79 15.5488 11.3463 15.3787C10.9025 15.2085 10.7506 15.3057 10.6229 15.1112C10.4953 14.9167 10.2886 14.7222 10.477 14.7526C10.6655 14.783 10.5925 14.8377 10.8053 14.8802C11.0181 14.9228 11.1701 14.827 11.2856 14.9812C11.401 15.1356 11.5955 15.245 11.7779 15.1598C11.9603 15.0747 12.0332 15.0261 12.2277 15.1355C12.4222 15.2449 12.2946 15.5549 12.5864 15.64C12.8782 15.725 12.9268 15.409 12.9876 15.8102C13.0485 16.2114 13.1639 16.5821 13.2672 16.6612C13.3706 16.7403 13.2126 17.105 13.5407 17.0077C13.869 16.9104 13.9662 16.9226 13.9662 16.5822C13.9662 16.2418 13.9541 16.1568 14.1303 16.0351C14.3066 15.9136 14.5497 15.792 14.6591 15.6643C14.7686 15.5367 14.7017 15.4576 14.9205 15.4819C15.1394 15.5063 15.6803 16.1141 15.656 16.2417C15.6317 16.3694 15.6074 16.4181 15.7107 16.4971C15.814 16.5761 15.808 16.6004 15.887 16.8861C15.966 17.1718 15.9478 17.1292 16.197 17.3967C16.4462 17.6642 16.7988 17.8526 16.7683 17.6581C16.7379 17.4636 16.6164 17.4879 16.507 17.1779C16.3975 16.8679 16.2699 16.5882 16.4158 16.6673C16.5617 16.7463 16.5192 16.8618 16.6711 16.8862C16.8231 16.9105 16.8474 16.7342 16.9629 16.6794C17.0784 16.6248 17.2851 16.181 17.121 15.9865C16.9569 15.792 16.7866 15.6582 16.9569 15.5975C17.1271 15.5367 17.048 15.5793 17.2487 15.6157C17.4492 15.6522 17.3885 15.5549 17.6316 15.4881C17.8747 15.4212 18.2273 15.3118 18.4158 15.0687C18.6042 14.8256 18.8108 14.7526 18.7562 14.4304C18.7015 14.1083 18.6285 13.9685 18.5131 13.8833C18.3976 13.7982 18.3915 13.7374 18.4948 13.7009C18.5981 13.6644 18.8656 13.6584 18.7136 13.5794C18.5617 13.5004 18.6346 13.5429 18.4583 13.5004C18.282 13.4578 18.0936 13.5429 18.2516 13.397C18.4096 13.2511 18.5312 13.1295 18.5312 13.1295C18.5312 13.1295 18.4886 13.16 18.592 13.2694C18.6953 13.3788 18.7622 13.3302 18.8108 13.3058C18.8594 13.2815 19.0053 13.1782 19.0236 13.2937C19.0419 13.4092 18.8352 13.4943 18.9567 13.5368C19.0783 13.5794 19.1877 13.4699 19.1391 13.6888C19.0905 13.9076 19.1877 14.1082 19.2911 13.9988C19.3944 13.8894 19.5464 13.5672 19.516 13.4335C19.4856 13.2998 19.3822 13.3666 19.522 13.1235C19.6619 12.8804 19.6619 12.7101 19.8503 12.7405C20.0388 12.7709 20.2211 12.5886 20.2941 12.5156C20.367 12.4427 20.677 12.2724 20.7256 12.0658C20.7742 11.8591 20.75 11.8288 20.8168 11.5916C20.8836 11.3546 21.0295 11.3546 20.8472 11.2452C20.6648 11.1357 20.525 11.1601 20.4946 11.0384C20.4642 10.9169 20.9809 10.3272 21.2059 10.2361C21.4308 10.145 21.5888 10.1875 21.7408 10.2543C21.8927 10.3212 21.9413 10.388 22.0812 10.3029C22.221 10.2178 22.3121 10.1691 22.3911 10.1631C22.4702 10.157 22.689 9.99281 22.7802 10.0658C22.8713 10.1387 22.8835 10.2177 22.9929 10.1691C23.1024 10.1205 23.2483 9.86519 23.2969 9.95634C23.3455 10.0475 23.3333 10.1569 23.1996 10.3332C23.0658 10.5095 22.9503 10.5399 22.7802 10.6797C22.6099 10.8195 22.5431 10.9654 22.5431 11.093C22.5431 11.2206 22.4945 11.6462 22.5613 11.6523C22.6282 11.6583 22.6464 11.6401 22.8227 11.4152C22.999 11.1903 23.0901 11.1782 23.2056 11.093C23.3211 11.0079 23.3637 10.9046 23.3819 10.704C23.4002 10.5035 23.2725 10.4548 23.461 10.3515C23.6494 10.2481 23.8743 10.1387 24.0627 10.1691C24.2512 10.1995 24.2086 10.1935 24.3485 10.0536C24.4883 9.9138 24.5855 9.82266 24.7314 9.83478C24.8773 9.84691 25.1143 9.87732 25.1508 9.80437C25.1873 9.73143 25.1569 9.67069 25.163 9.56733C25.169 9.46397 25.1569 9.42143 25.2967 9.38496C25.4366 9.34849 25.4304 9.29988 25.4973 9.27554C25.5642 9.25119 25.6067 9.32414 25.7161 9.36668C25.8256 9.40922 26.093 9.41528 26.1538 9.33627C26.2146 9.25708 26.3119 9.19019 26.3119 9.19019Z" fill="#9FA6A9"/>
<path d="M20.975 12.4969C21.0544 12.5262 21.2059 12.6489 21.2972 12.6428C21.3883 12.6368 21.437 12.7583 21.364 12.7705C21.2911 12.7826 21.048 12.8981 21.048 12.8981C21.048 12.8981 20.975 12.8069 20.9325 12.8981C20.89 12.9892 20.8656 13.0561 20.8778 13.1109C20.89 13.1655 20.9751 13.3236 20.9264 13.4027C20.8778 13.4817 20.811 13.5242 20.811 13.6215C20.811 13.7187 20.8718 13.8221 20.7866 13.8646C20.7015 13.9071 20.6164 13.9194 20.5435 13.9436C20.4706 13.968 20.4159 13.974 20.3855 14.0409C20.3551 14.1078 20.2821 14.205 20.1302 14.1989C19.9782 14.1929 19.9782 14.0713 19.8384 14.1868C19.6985 14.3023 19.6925 14.3692 19.6195 14.3388C19.5466 14.3084 19.6012 14.2658 19.6195 14.1503C19.6377 14.0349 19.3702 14.0653 19.6134 13.9315C19.8565 13.7977 19.8565 13.7795 20.0207 13.7552C20.1848 13.7308 20.2761 13.8098 20.3428 13.6701C20.4097 13.5303 20.3428 13.4756 20.4766 13.4695C20.6104 13.4635 20.6955 13.5243 20.7197 13.3722C20.7441 13.2203 20.7258 13.0927 20.7197 12.9954C20.7137 12.8981 20.6772 12.8069 20.7866 12.7705C20.896 12.734 20.9082 12.8009 20.9204 12.7158C20.9324 12.6306 20.8595 12.4544 20.975 12.4969Z" fill="#9FA6A9"/>
<path d="M18.5313 15.7916C18.6468 15.8098 18.7014 16.0165 18.6651 16.1016C18.6286 16.1866 18.5921 16.2839 18.6955 16.3021C18.7988 16.3204 18.8718 16.3325 18.8718 16.4055C18.8718 16.4784 18.9143 16.3265 18.9933 16.521C19.0723 16.7155 18.9994 16.7459 19.0906 16.8918C19.1818 17.0377 19.2912 17.1106 19.1636 17.1836C19.036 17.2565 19.1332 17.3355 18.9995 17.293C18.8658 17.2505 18.9205 17.2747 18.8536 17.1471C18.7867 17.0195 18.7442 17.1228 18.6834 17.1167C18.6226 17.1106 18.6044 17.1106 18.653 17.0255C18.7016 16.9405 18.726 16.9465 18.6713 16.8492C18.6166 16.7519 18.7017 16.6365 18.6227 16.6183C18.5437 16.6001 18.5193 16.7338 18.3796 16.8188C18.2398 16.9039 18.0331 16.9283 18.0392 16.8978C18.0453 16.8674 18.1243 16.8249 18.252 16.6669C18.3796 16.5088 18.4587 16.606 18.4343 16.3629C18.41 16.1198 18.3249 16.1866 18.4039 16.0165C18.4827 15.8463 18.5313 15.7916 18.5313 15.7916Z" fill="#9FA6A9"/>
<path d="M18.1421 17.1715C18.2341 17.2635 18.3549 17.2384 18.3184 17.3296C18.282 17.4207 18.1737 17.4329 18.2339 17.5241C18.2941 17.6153 18.3488 17.749 18.4279 17.7368C18.5069 17.7247 18.5008 17.6639 18.6953 17.6639C18.8898 17.6639 19.0114 17.6213 19.0236 17.7004C19.0357 17.7794 18.9385 17.7854 18.8108 17.9009C18.6832 18.0164 18.5555 18.1319 18.6588 18.2049C18.7622 18.2778 18.8047 18.4116 18.7683 18.4602C18.7318 18.5088 18.6953 18.5575 18.7804 18.6182C18.8655 18.679 19.2727 18.6607 19.1754 18.8066C19.0782 18.9525 18.8411 19.0316 18.5919 19.0376C18.3426 19.0437 18.543 18.9707 18.0386 18.9221C17.5342 18.8735 17.4491 19.0011 17.0966 18.831C16.744 18.6607 16.513 18.8066 16.3185 18.4966C16.124 18.1867 16.203 18.3386 15.9598 18.0164C15.7167 17.6943 15.8322 17.6943 15.6255 17.5666C15.4187 17.439 15.2425 17.2566 15.3824 17.2566C15.5222 17.2566 15.4553 17.0925 15.8868 17.4511C16.3184 17.8097 16.2029 17.7915 16.519 18.0043C16.8351 18.2171 16.9385 18.2413 17.0539 18.2171C17.1694 18.1927 17.3397 18.2171 17.2303 18.0772C17.1208 17.9374 17.06 17.7612 17.1512 17.7308C17.2425 17.7004 17.2363 17.8523 17.3883 17.6882C17.5402 17.5241 17.5402 17.4815 17.674 17.4268C17.8078 17.3722 17.7348 17.4268 17.8625 17.3478C17.9902 17.2688 18.0388 17.0682 18.1421 17.1715Z" fill="#9FA6A9"/>
<path d="M19.814 17.8766C19.8801 17.9616 19.9903 18.0711 20.0389 18.1624C20.0875 18.2536 20.1787 18.0852 20.3549 18.0903C20.5312 18.0955 20.7926 18.1927 20.9021 18.2414C21.0115 18.2901 21.1999 18.3204 21.3154 18.4784C21.4309 18.6364 21.516 18.5453 21.5221 18.7033C21.5282 18.8613 21.5525 18.8432 21.6558 18.9343C21.7592 19.0254 21.7774 19.1957 21.595 19.1227C21.4126 19.0498 21.3579 18.8006 21.1634 18.8249C20.9689 18.8492 21.048 18.9039 20.896 18.9343C20.744 18.9647 20.6771 18.91 20.4948 18.8978C20.3124 18.8857 20.1787 18.9464 20.2638 18.7823C20.3489 18.6182 20.4097 18.6122 20.1118 18.4905C19.814 18.369 19.6985 18.4297 19.6985 18.3021C19.6985 18.1745 19.7471 18.1623 19.6316 18.0528C19.5161 17.9434 19.4796 17.8644 19.5526 17.8096C19.6255 17.755 19.7714 17.8219 19.814 17.8766Z" fill="#9FA6A9"/>
<path d="M20.1666 19.6272C20.3672 19.7306 20.4462 19.9372 20.5435 19.9007C20.6408 19.8643 20.6043 19.8034 20.6772 19.5847C20.7501 19.3658 20.7562 19.1409 20.8474 19.2321C20.9386 19.3233 20.8535 19.5013 20.9994 19.5582C21.1453 19.6151 21.1757 19.6577 21.2061 19.8279C21.2365 19.9981 21.2669 19.9434 21.4189 20.1197C21.5708 20.296 21.7073 20.2656 21.7333 20.4661C21.7593 20.6667 22.0146 20.8734 22.0267 21.08C22.0389 21.2868 22.0753 21.4326 21.9234 21.694C21.7714 21.9553 21.7106 22.089 21.662 22.1985C21.6134 22.308 21.4675 22.3626 21.3095 22.3626C21.1514 22.3626 21.0602 22.2957 20.963 22.3201C20.8657 22.3444 20.7989 22.466 20.6834 22.3809C20.5679 22.2958 20.501 22.1864 20.4646 22.1195C20.4281 22.0526 20.4099 21.8277 20.2397 21.8521C20.0695 21.8764 20.0938 21.9615 19.9904 21.8521C19.887 21.7427 19.96 21.6515 19.6561 21.6028C19.3521 21.5542 19.2731 21.5299 19.1454 21.5603C19.0178 21.5907 18.884 21.6332 18.7442 21.7426C18.6044 21.8521 18.3855 21.7974 18.264 21.8521C18.1424 21.9067 17.96 22.0284 17.8263 21.9554C17.6925 21.8825 17.7412 21.846 17.7473 21.6759C17.7533 21.5056 17.7412 21.6212 17.6561 21.3294C17.571 21.0376 17.6075 21.0801 17.5285 20.9404C17.4495 20.8006 17.3887 20.8674 17.4981 20.6669C17.6075 20.4663 17.571 20.4238 17.6318 20.3569C17.6926 20.29 17.7473 20.3752 17.954 20.2353C18.1607 20.0955 18.2214 20.1563 18.4099 20.0834C18.5983 20.0104 18.6408 19.7308 18.7563 19.6457C18.8718 19.5606 18.9022 19.4937 18.9873 19.4937C19.0724 19.4937 19.1697 19.5423 19.3216 19.6031C19.4736 19.6639 19.4432 19.67 19.5709 19.5302C19.6985 19.3903 19.5709 19.2567 19.8019 19.2809C20.0328 19.3053 20.1179 19.2688 20.1483 19.4025C20.1787 19.5361 20.1666 19.6272 20.1666 19.6272Z" fill="#9FA6A9"/>
<path d="M24.3851 22.4963C24.5067 22.3383 24.5675 22.32 24.5249 22.1376C24.4824 21.9552 24.4945 21.8122 24.6526 21.9749C24.8106 22.1376 24.9869 22.2288 25.1084 22.2349C25.23 22.241 25.5218 22.3322 25.2239 22.5571C24.9261 22.782 24.9808 22.624 24.7437 22.9583C24.5067 23.2927 24.689 23.2987 24.4033 23.4628C24.1176 23.6269 23.8015 23.6999 23.8623 23.554C23.9231 23.4081 23.8927 23.4081 24.1541 23.2136C24.4155 23.0191 24.5857 22.8732 24.5857 22.7092C24.5857 22.545 24.3851 22.4963 24.3851 22.4963Z" fill="#9FA6A9"/>
<path d="M9.86928 20.8551C9.75986 20.6971 9.75985 20.6484 9.74773 20.3932C9.7356 20.1379 9.65043 20.0163 9.74773 19.8704C9.84502 19.7245 10.1003 19.4814 10.1976 19.3112C10.2948 19.141 10.3191 18.7763 10.3799 19.1044C10.4407 19.4327 10.6352 19.6272 10.3434 20.0649C10.0517 20.5025 9.86928 20.8551 9.86928 20.8551Z" fill="#9FA6A9"/>
<path d="M4.0216 11.81C3.99725 11.7614 4.10667 11.6033 4.10667 11.6033C4.10667 11.6033 4.24044 11.5303 4.20397 11.2629C4.16749 10.9954 4.14315 11.1535 4.04594 10.8981C3.94865 10.6428 3.80284 10.6914 3.94865 10.5213C4.09455 10.351 4.2647 10.0958 4.30118 10.3024C4.33765 10.5091 4.25257 10.6428 4.33765 10.7401C4.42273 10.8374 4.59297 10.8575 4.69018 11.0176C4.78747 11.1777 5.17648 11.2385 4.88468 11.4452C4.59288 11.6519 4.4592 11.5181 4.34978 11.664C4.24036 11.81 4.0216 11.81 4.0216 11.81Z" fill="#9FA6A9"/>
<path d="M3.63246 11.6155C3.82696 11.5061 3.89806 11.5304 3.88681 11.3358C3.87556 11.1413 4.00933 10.9711 3.80261 10.959C3.59598 10.9468 3.53516 11.0684 3.51082 11.1535C3.48647 11.2386 3.48647 11.2629 3.54729 11.348C3.60811 11.4331 3.62024 11.5547 3.5959 11.6154C3.57173 11.6763 3.63246 11.6155 3.63246 11.6155Z" fill="#9FA6A9"/>
<path d="M2.92736 9.71907C3.08539 9.60965 3.34071 9.70694 3.35284 9.47588C3.36497 9.2449 3.42579 9.18408 3.07326 9.15982C2.72073 9.13548 2.72073 9.13548 2.50188 9.15982C2.28303 9.18417 2.0764 8.96532 2.24656 9.29359C2.41671 9.62186 2.44106 9.69481 2.57483 9.71907C2.7086 9.74333 2.92736 9.71907 2.92736 9.71907Z" fill="#9FA6A9"/>
<path d="M27.3999 8.84378C27.2102 8.62687 26.9015 8.6128 27.1446 8.47903C27.3877 8.34535 27.5336 8.26019 27.7647 8.21158C27.9957 8.16298 28.2389 8.26019 28.6157 8.35748C28.9926 8.45478 29.6005 8.36961 29.8801 8.45478C30.1597 8.53985 30.2935 8.7101 30.3786 8.69788C30.4636 8.68575 30.7068 8.43043 30.9499 8.43043C31.193 8.43043 31.3147 8.39396 31.8131 8.45478C32.3115 8.5156 32.7978 8.53985 32.81 8.66149C32.8221 8.78305 32.8221 8.84387 33.0045 8.84387C33.1868 8.84387 33.3449 8.73444 33.4543 8.90469C33.5637 9.07493 33.7339 9.19648 33.7096 9.06271C33.6853 8.92903 33.5637 8.81961 33.661 8.77092C33.7583 8.72231 34.0379 8.69797 34.1108 8.72231C34.1838 8.74666 34.4148 8.78313 34.4877 8.77092C34.5607 8.75879 34.5121 8.63715 34.7552 8.7101C34.9983 8.78305 35.0347 8.96542 35.0834 8.97755C35.132 8.98968 35.2415 8.79061 35.2536 8.65921C35.2657 8.52772 35.3751 8.52772 35.1564 8.35757C34.9375 8.18732 35.1352 7.98069 35.2916 8.05364C35.4481 8.12659 35.3509 8.22389 35.5089 8.38191C35.6669 8.53994 35.6913 8.67371 35.8007 8.62502C35.9101 8.57642 35.8493 8.3697 35.9952 8.52772C36.1411 8.68575 36.1776 8.60612 36.3113 8.57905C36.445 8.55198 36.3356 8.4669 36.4936 8.55198C36.6517 8.63706 36.9191 8.73436 36.7246 8.89238C36.5301 9.05041 36.2383 9.02615 36.0317 9.14771C35.825 9.26926 35.8858 9.23278 35.825 9.37868C35.7641 9.52458 35.7885 9.53671 35.5454 9.59753C35.3022 9.65835 35.2293 9.60966 35.2415 9.81638C35.2536 10.0231 35.2293 10.0474 35.1442 10.1568C35.0591 10.2662 35.1077 10.3635 35.205 10.4121C35.3023 10.4607 35.4116 10.3756 35.4116 10.5215C35.4116 10.6674 35.594 10.7768 35.8371 10.7768C36.0802 10.7768 36.1896 10.8377 36.3355 11.02C36.4814 11.2023 36.2747 11.2145 36.5179 11.4454C36.761 11.6764 36.9921 11.7858 37.0285 11.5792C37.065 11.3726 37.0285 11.3239 37.065 11.0808C37.1015 10.8377 37.3325 10.8133 37.2109 10.5945C37.0894 10.3756 36.907 10.2784 37.0771 10.1568C37.2474 10.0352 37.0407 9.9229 37.3325 9.86357C37.6243 9.80425 37.8188 9.75556 37.9403 9.9744C38.0619 10.1933 37.9282 10.3391 38.0497 10.4364C38.1713 10.5337 38.5482 10.3878 38.6211 10.3027C38.6941 10.2176 38.9007 10.2297 38.9736 10.5458C39.0466 10.8618 39.0952 10.947 39.2046 10.9835C39.314 11.02 39.314 11.0929 39.4478 11.2145C39.5815 11.336 39.8368 11.5305 39.4478 11.567C39.0588 11.6035 38.7427 11.5549 38.5968 11.6885C38.4509 11.8222 38.4387 11.725 38.536 11.9074C38.6332 12.0898 38.5603 11.9682 38.6332 12.1992C38.7062 12.4302 39.0709 12.4302 38.8034 12.5882C38.5359 12.7462 38.5846 12.7827 38.4265 12.7341C38.2685 12.6855 38.232 12.3364 38.0497 12.6204C37.8673 12.9043 37.8916 13.0138 37.7336 13.0988C37.5756 13.1839 37.5634 13.0137 37.4175 13.2812C37.2716 13.5487 37.5026 13.573 37.1744 13.8769C36.8462 14.1808 36.6881 14.035 36.6638 14.2903C36.6395 14.5456 36.7976 14.8495 36.7124 14.9103C36.6273 14.9712 36.6395 14.9589 36.5422 14.7888C36.4449 14.6185 36.4936 14.5213 36.1532 14.497C35.8128 14.4726 35.8372 14.3876 35.7034 14.5335C35.5696 14.6794 35.752 14.728 35.3751 14.6794C34.9983 14.6308 34.9497 14.1809 34.8767 14.7037C34.8038 15.2265 34.7916 15.2872 34.9132 15.4331C35.0347 15.579 35.363 15.9315 35.5089 15.7735C35.6548 15.6155 35.4724 15.421 35.7521 15.4817C36.0317 15.5425 36.1046 15.4696 36.056 15.6276C36.0074 15.7856 35.6306 15.81 35.9345 15.9559C36.2384 16.1018 36.4937 15.9315 36.518 16.1626C36.5423 16.3936 36.4815 16.4544 36.4936 16.5881C36.5058 16.7218 36.5666 16.8191 36.8462 16.8191C37.1257 16.8191 37.1136 16.7096 37.1866 16.8555C37.2595 17.0014 37.4905 16.9285 37.5878 16.7218C37.6851 16.515 37.758 16.2841 37.9038 16.5273C38.0497 16.7704 38.074 16.8191 38.2199 16.7218C38.3658 16.6245 38.3658 16.6245 38.3658 16.6245C38.3658 16.6245 38.5238 16.4786 38.6576 16.6001C38.7914 16.7217 39.0101 16.588 39.0588 16.7582C39.1074 16.9283 39.0345 16.9527 39.2412 17.0135C39.4479 17.0743 39.691 16.977 39.8126 17.1472C39.9341 17.3174 39.6058 17.208 39.9585 17.4146C40.311 17.6213 40.4204 17.6456 40.3962 17.7794C40.3718 17.9131 40.4691 17.9374 40.7852 18.0103C41.1012 18.0833 41.0526 18.0468 41.3079 18.2413C41.5633 18.4358 41.7699 18.3507 41.8551 18.448C41.9401 18.5453 42.086 18.5696 41.9645 18.837C41.8429 19.1045 41.7214 19.0437 41.6241 19.2504C41.5268 19.4571 41.4417 19.5057 41.4661 19.8704C41.4904 20.2352 41.5025 20.1987 41.4296 20.3811C41.3566 20.5635 41.0892 20.5877 40.8703 20.7215C40.6515 20.8553 40.6394 20.7458 40.4935 21.1105C40.3476 21.4752 40.4326 21.2807 40.3111 21.5968C40.1895 21.9129 40.3597 21.7548 40.0072 21.9372C39.6546 22.1196 39.5209 21.9615 39.4844 22.071C39.4479 22.1804 39.6911 22.0953 39.4358 22.3263C39.1805 22.5573 39.071 22.6181 38.913 22.7153C38.755 22.8125 38.6577 22.922 38.6942 23.1286C38.7306 23.3353 38.913 23.3231 38.7063 23.5176C38.4996 23.7121 38.4145 23.5176 38.3538 23.8337C38.2929 24.1498 38.2322 24.0039 38.2929 24.3321C38.3538 24.6604 38.6698 24.6604 38.378 24.8428C38.0862 25.0251 37.7702 25.1102 37.5878 24.6726C37.4054 24.2349 37.4054 24.0648 37.4054 23.773C37.4054 23.4812 37.3689 23.7 37.5148 23.2016C37.6607 22.7032 37.4175 22.8733 37.5392 22.3263C37.6607 21.7792 37.6365 21.1957 37.758 20.7944C37.8796 20.3932 38.147 20.5026 37.8796 20.138C37.6121 19.7732 37.5635 19.8341 37.3326 19.5909C37.1016 19.3478 37.2475 19.3964 37.1137 19.1046C36.9799 18.8128 36.8949 18.8371 36.7854 18.6183C36.676 18.3994 36.6152 18.4724 36.7246 18.1077C36.834 17.743 36.5909 17.7552 36.834 17.6458C37.0771 17.5363 37.0408 17.2689 37.0043 17.1716C36.9678 17.0743 37.1867 17.0378 36.8463 16.9892C36.5059 16.9406 36.4086 17.05 36.287 16.8433C36.1655 16.6366 36.2627 16.6002 36.0074 16.4786C35.7521 16.357 35.4725 16.357 35.3752 16.2597C35.2779 16.1624 35.2779 16.1624 35.2779 16.1624C35.2779 16.1624 35.4603 16.0895 35.047 16.0409C34.6336 15.9923 34.3297 16.0409 34.123 15.7491C33.9162 15.4573 33.9649 15.6275 33.9162 15.3601C33.8676 15.0926 33.8068 15.0926 33.6123 14.9224C33.4178 14.7522 33.4178 14.6549 33.2354 14.582C33.0531 14.509 33.0166 14.5334 33.0166 14.5699C33.0166 14.6063 33.0045 14.7522 33.1746 14.8859C33.3449 15.0197 33.357 15.1412 33.357 15.202C33.357 15.2628 33.126 15.3357 33.126 15.3357C33.126 15.3357 33.126 15.2628 33.0531 15.0926C32.9801 14.9224 32.9558 14.8373 32.8099 14.6307C32.664 14.424 32.6275 14.3997 32.6275 14.3997C32.6275 14.3997 32.4573 14.1322 32.1656 13.7797C31.8738 13.4272 31.7887 13.6459 31.7887 13.2448C31.7887 12.8436 31.8616 12.8436 31.7887 12.564C31.7157 12.2844 31.5456 12.1507 31.6914 12.1021C31.8373 12.0535 31.9224 11.9805 31.6549 11.7495C31.3875 11.5186 31.2902 11.6401 31.193 11.3241C31.0957 11.008 31.3024 11.0323 30.9012 10.8864C30.4999 10.7405 30.4513 10.6189 30.269 10.5338C30.0866 10.4487 29.9772 10.4001 29.9772 10.4001C29.9772 10.4001 30.0136 10.3637 29.5759 10.3272C29.1382 10.2907 29.1869 10.0841 28.8587 10.2178C28.5304 10.3515 28.4818 10.3758 28.4818 10.3758C28.4818 10.3758 28.6642 10.157 28.3481 10.1813C28.0321 10.2056 28.1049 10.2786 28.0928 10.4245C28.0807 10.5704 28.1293 10.7405 27.9104 10.8257C27.6916 10.9108 27.3755 11.1418 27.4971 10.8987C27.6186 10.6555 27.9225 10.4853 27.8131 10.4245C27.7037 10.3637 27.4727 10.5582 27.4484 10.3637C27.424 10.1692 27.4727 10.0719 27.2174 10.0597C26.9621 10.0476 26.7554 9.93819 26.9499 9.85303C27.1444 9.76795 27.3268 9.80442 27.3876 9.5977C27.4485 9.39099 27.8983 9.34238 27.3998 9.3546C26.9013 9.36673 26.6825 9.36673 26.7433 9.26952C26.8041 9.17223 26.7798 8.98994 27.1323 9.03854C27.485 9.08688 27.485 8.94099 27.3999 8.84378Z" fill="#9FA6A9"/>
</g>
<path d="M7.462 19.2036C7.40848 19.0833 7.34168 18.983 7.25476 18.9028C7.16115 18.8225 7.06087 18.7624 6.94046 18.7156C6.82682 18.6754 6.69973 18.6555 6.57272 18.6555C6.43895 18.6555 6.31195 18.6755 6.19831 18.7156C6.18495 18.7223 6.16491 18.7289 6.15146 18.7357C6.05786 18.7825 5.96426 18.8359 5.89069 18.9029C5.79709 18.9831 5.7302 19.0834 5.67668 19.2037C5.62315 19.3174 5.59644 19.4578 5.59644 19.6049V20.9556C5.59644 21.1094 5.62315 21.2431 5.67668 21.3635C5.73012 21.4839 5.797 21.5775 5.89069 21.6644C5.97762 21.7446 6.08458 21.8048 6.19822 21.8448C6.31187 21.885 6.43895 21.905 6.57264 21.905C6.63284 21.905 6.69973 21.8984 6.75984 21.8917C6.82005 21.8783 6.88685 21.8649 6.94037 21.8448C7.06078 21.8048 7.16106 21.7446 7.25467 21.6644C7.34159 21.5775 7.40848 21.4839 7.46191 21.3635C7.51544 21.2431 7.54216 21.1094 7.54216 20.9556V19.6049C7.54225 19.4577 7.51553 19.3173 7.462 19.2036ZM6.9605 20.9489C6.9605 21.0892 6.92042 21.1895 6.85353 21.2699C6.78665 21.3367 6.70641 21.3767 6.60612 21.3835H6.57272C6.4524 21.3835 6.35871 21.3433 6.28523 21.2699C6.21835 21.1895 6.17827 21.0893 6.17827 20.9489V19.6183C6.17827 19.5915 6.17827 19.5715 6.18495 19.5514C6.18495 19.5447 6.19163 19.5381 6.19163 19.5381C6.19831 19.4379 6.23171 19.3642 6.28523 19.2973C6.29859 19.284 6.31195 19.2706 6.32531 19.2639C6.3922 19.2037 6.47244 19.1836 6.57272 19.1836C6.68645 19.1836 6.77997 19.2171 6.85362 19.2973C6.92051 19.3776 6.96059 19.4845 6.96059 19.6183L6.9605 20.9489Z" fill="#CECECF"/>
<path d="M9.01314 18.6818L8.3645 19.2502V19.8787L9.01314 19.3104V21.878H9.60156V18.6818H9.01314Z" fill="#CECECF"/>
<path d="M10.6782 18.6818V19.7115H11.2333V19.21H12.0824L11.0393 21.878H11.6745L12.7109 19.21V18.6818H10.6782Z" fill="#CECECF"/>
<path d="M15.1183 19.2035C15.0647 19.0832 14.9979 18.9829 14.911 18.9027C14.8174 18.8224 14.7171 18.7623 14.5967 18.7155C14.4764 18.6753 14.356 18.6553 14.229 18.6553C14.0952 18.6553 13.9682 18.6754 13.8546 18.7155C13.7342 18.7623 13.6339 18.8224 13.5469 18.9027C13.4533 18.9829 13.3798 19.0832 13.3329 19.2035C13.2795 19.3172 13.2527 19.4576 13.2527 19.6047V20.9554C13.2527 21.1092 13.2795 21.2429 13.3329 21.3632C13.3798 21.4837 13.4533 21.5773 13.5469 21.6642C13.6339 21.7444 13.7341 21.8045 13.8546 21.8446C13.9682 21.8848 14.0953 21.9048 14.229 21.9048C14.356 21.9048 14.4764 21.8848 14.5967 21.8446C14.717 21.8045 14.8174 21.7444 14.911 21.6642C14.9979 21.5773 15.0648 21.4837 15.1183 21.3632C15.1717 21.2429 15.1985 21.1092 15.1985 20.9554V19.6047C15.1984 19.4576 15.1717 19.3172 15.1183 19.2035ZM14.6101 20.9488C14.6101 21.0891 14.5767 21.1894 14.5098 21.2697C14.4362 21.3432 14.3426 21.3834 14.229 21.3834C14.1087 21.3834 14.015 21.3432 13.9415 21.2697C13.8747 21.1894 13.8345 21.0892 13.8345 20.9488V19.6182C13.8345 19.4844 13.8747 19.3774 13.9415 19.2972C14.015 19.217 14.1087 19.1835 14.229 19.1835C14.3426 19.1835 14.4362 19.217 14.5098 19.2972C14.5767 19.3774 14.6101 19.4844 14.6101 19.6182V20.9488Z" fill="#CECECF"/>
<path d="M20.0125 20.5141C19.9724 20.3938 19.9055 20.2935 19.8253 20.2132C19.7451 20.133 19.6581 20.0729 19.5579 20.026C19.4576 19.986 19.3505 19.9658 19.2436 19.9658C19.2035 19.9658 19.1633 19.9658 19.1232 19.9725C19.0832 19.9792 19.043 19.9859 19.0096 20.0059L19.2302 19.5714L19.6715 18.682H19.0363L18.9694 18.8158V18.8225L18.8892 18.9829L18.361 20.0661C18.3543 20.0795 18.3476 20.0929 18.3409 20.1063C18.274 20.24 18.2206 20.367 18.1737 20.494C18.1202 20.6277 18.0935 20.7749 18.0935 20.922C18.0935 21.0758 18.1135 21.2162 18.1671 21.3432C18.2206 21.4636 18.2874 21.5705 18.3811 21.6508C18.448 21.7177 18.5148 21.7645 18.6017 21.8046H18.6084C18.6352 21.8179 18.6686 21.8314 18.6953 21.8447C18.8156 21.8848 18.9494 21.9049 19.0898 21.9049C19.2302 21.9049 19.3573 21.8848 19.4776 21.8381C19.6046 21.7979 19.705 21.7311 19.7986 21.6441L19.8053 21.6374C19.8922 21.5505 19.9591 21.457 20.0058 21.3299C20.0594 21.2095 20.0861 21.0691 20.0861 20.9086C20.0861 20.7615 20.0594 20.6344 20.0125 20.5141ZM19.0898 20.4473C19.2168 20.4473 19.3171 20.4874 19.3908 20.5743C19.4643 20.6545 19.5044 20.7749 19.5044 20.9153C19.5044 21.0623 19.4643 21.1827 19.3841 21.263C19.3038 21.3432 19.2102 21.3833 19.0898 21.3833C18.9695 21.3833 18.8691 21.3432 18.7889 21.263C18.7153 21.1827 18.6753 21.0623 18.6753 20.9153C18.6753 20.7682 18.7153 20.6479 18.7889 20.5676C18.8691 20.4874 18.9694 20.4473 19.0898 20.4473Z" fill="#CECECF"/>
<path d="M22.5936 20.3535C22.5668 20.2131 22.4865 20.0727 22.3595 19.9525C22.2926 19.8855 22.2125 19.8321 22.1121 19.7919C22.0118 19.7518 21.8982 19.7318 21.7577 19.7318C21.6508 19.7318 21.5572 19.7519 21.4702 19.7853C21.3833 19.8187 21.3231 19.8521 21.283 19.8923V19.2102H22.5735V18.682H20.7481V20.4874H21.283C21.3031 20.4273 21.3432 20.367 21.4033 20.3135C21.4434 20.2734 21.4903 20.2466 21.5572 20.24C21.5906 20.2266 21.6307 20.2266 21.6708 20.2266C21.8178 20.2266 21.9182 20.2801 21.9717 20.3736C22.0319 20.4739 22.0653 20.6145 22.0653 20.8016C22.0653 20.9019 22.0519 20.9955 22.0384 21.0825C22.0384 21.0958 22.0318 21.1025 22.0251 21.1093C22.0251 21.116 22.0251 21.116 22.0251 21.116C22.005 21.1828 21.9783 21.2363 21.9382 21.2764C21.8646 21.3499 21.7777 21.3834 21.6574 21.3834C21.537 21.3834 21.4433 21.3499 21.3832 21.2764C21.323 21.2095 21.2829 21.116 21.2696 20.9889H20.6812C20.6945 21.1026 20.7146 21.2162 20.748 21.3299C20.7814 21.4503 20.8416 21.5505 20.9419 21.6509C21.0088 21.7244 21.1091 21.778 21.2295 21.8314C21.3431 21.8848 21.4903 21.905 21.6574 21.905C21.7176 21.905 21.7644 21.905 21.8113 21.8916H21.8179C21.9182 21.8849 22.0051 21.8648 22.0854 21.8315C22.199 21.778 22.2926 21.7177 22.3662 21.651C22.4799 21.5305 22.5534 21.4035 22.5936 21.2699C22.627 21.1361 22.6471 20.9823 22.6471 20.8018C22.6471 20.6478 22.627 20.5006 22.5936 20.3535Z" fill="#CECECF"/>
<path d="M23.2019 18.6818V19.7115H23.7569V19.21H24.6061L23.5697 21.878H24.1982L25.2413 19.21V18.6818H23.2019Z" fill="#CECECF"/>
<path d="M27.675 19.2236C27.6282 19.0966 27.5547 18.9963 27.4678 18.9094C27.3742 18.8291 27.2739 18.7622 27.1469 18.7222C27.0266 18.6753 26.8995 18.6553 26.759 18.6553C26.6187 18.6553 26.4849 18.6753 26.3646 18.7222C26.2442 18.769 26.1372 18.8358 26.0436 18.916C25.9567 19.0029 25.8898 19.11 25.8363 19.2303C25.7829 19.3573 25.7561 19.4977 25.7561 19.6515C25.7561 19.8053 25.7829 19.9391 25.8297 20.0526C25.8765 20.1664 25.9434 20.2667 26.0169 20.3468C26.0971 20.4271 26.1907 20.4939 26.291 20.534C26.3913 20.5809 26.4983 20.601 26.6053 20.601C26.6454 20.601 26.6855 20.601 26.7256 20.5943C26.7657 20.5876 26.8059 20.5742 26.8393 20.5608L26.1773 21.878H26.8125L27.4878 20.5007C27.5614 20.3536 27.6216 20.2065 27.675 20.0728C27.7285 19.9324 27.7553 19.792 27.7553 19.6448C27.7553 19.4843 27.7285 19.3439 27.675 19.2236ZM27.0532 19.9925C26.973 20.0728 26.8793 20.1129 26.759 20.1129C26.632 20.1129 26.5317 20.0728 26.4581 19.9925C26.3778 19.9056 26.3444 19.7919 26.3444 19.6515C26.3444 19.4977 26.3845 19.3841 26.4581 19.3038C26.5383 19.2236 26.6386 19.1834 26.759 19.1834C26.8793 19.1834 26.973 19.2236 27.0532 19.3038C27.1334 19.3841 27.1668 19.4977 27.1668 19.6515C27.1669 19.7986 27.1334 19.9123 27.0532 19.9925Z" fill="#CECECF"/>
<path d="M31.5066 18.6818L30.8513 19.2502V19.8787L31.5066 19.3104V21.878H32.0884V18.6818H31.5066Z" fill="#CECECF"/>
<path d="M33.1648 18.6818V19.7115H33.7264V19.21H34.5689L33.5325 21.878H34.1677L35.2041 19.21V18.6818H33.1648Z" fill="#CECECF"/>
<path d="M36.6084 18.6818L35.9597 19.2502V19.8787L36.6084 19.3104V21.878H37.1967V18.6818H36.6084Z" fill="#CECECF"/>
<path d="M40.1922 19.2236C40.1454 19.0966 40.0719 18.9963 39.9849 18.9094C39.8913 18.8291 39.791 18.7622 39.664 18.7222C39.5437 18.6753 39.4166 18.6553 39.2762 18.6553C39.1358 18.6553 39.0021 18.6753 38.8817 18.7222C38.7613 18.769 38.6544 18.8358 38.5607 18.916C38.4738 19.0029 38.4002 19.11 38.3534 19.2303C38.2999 19.3573 38.2732 19.4977 38.2732 19.6515C38.2732 19.8053 38.2999 19.9391 38.3468 20.0526C38.3936 20.1664 38.4604 20.2667 38.534 20.3468C38.6142 20.4271 38.7011 20.4939 38.8081 20.534C38.9084 20.5809 39.0153 20.601 39.1223 20.601C39.1624 20.601 39.2025 20.601 39.2426 20.5943C39.2828 20.5876 39.3229 20.5742 39.3564 20.5608L38.6944 21.878H39.3295L40.0049 20.5007C40.0785 20.3536 40.1387 20.2065 40.1921 20.0728C40.2455 19.9324 40.2724 19.792 40.2724 19.6448C40.2724 19.4843 40.2457 19.3439 40.1922 19.2236ZM39.5704 19.9925C39.4901 20.0728 39.3965 20.1129 39.2762 20.1129C39.1492 20.1129 39.0488 20.0728 38.9753 19.9925C38.895 19.9056 38.8616 19.7919 38.8616 19.6515C38.8616 19.4977 38.9017 19.3841 38.9753 19.3038C39.0555 19.2236 39.1558 19.1834 39.2762 19.1834C39.3965 19.1834 39.4901 19.2236 39.5704 19.3038C39.6506 19.3841 39.684 19.4977 39.684 19.6515C39.684 19.7986 39.6506 19.9123 39.5704 19.9925Z" fill="#CECECF"/>
<path d="M28.4241 27.1004C28.384 27.0135 28.3304 26.9399 28.2702 26.8797C28.2034 26.8196 28.1298 26.7727 28.0429 26.746C27.9559 26.7125 27.8623 26.6992 27.7687 26.6992C27.6685 26.6992 27.5815 26.7125 27.4946 26.746C27.4077 26.7728 27.3341 26.8196 27.2672 26.8797C27.2004 26.9399 27.1469 27.0135 27.1067 27.1004C27.0733 27.1873 27.0532 27.2876 27.0532 27.3945V28.3841C27.0532 28.4978 27.0733 28.5981 27.1067 28.685C27.1469 28.772 27.2004 28.8455 27.2672 28.9057C27.3341 28.9659 27.4077 29.0126 27.4946 29.0393C27.5815 29.0728 27.6685 29.0862 27.7687 29.0862C27.8623 29.0862 27.9559 29.0728 28.0429 29.0393C28.1298 29.0126 28.2034 28.9659 28.2702 28.9057C28.3304 28.8455 28.3839 28.772 28.4241 28.685C28.4642 28.5981 28.4776 28.4978 28.4776 28.3841V27.3945C28.4776 27.2877 28.4642 27.1874 28.4241 27.1004ZM28.0496 28.3842C28.0496 28.4845 28.0229 28.558 27.9761 28.6182C27.9225 28.6717 27.8558 28.6984 27.7688 28.6984C27.6819 28.6984 27.615 28.6717 27.5616 28.6182C27.5081 28.558 27.4813 28.4845 27.4813 28.3842V27.4013C27.4813 27.3078 27.5081 27.2275 27.5616 27.1673C27.6151 27.1138 27.6819 27.087 27.7688 27.087C27.8558 27.087 27.9226 27.1138 27.9761 27.1673C28.0229 27.2275 28.0496 27.3077 28.0496 27.4013V28.3842Z" fill="#CECECF"/>
<path d="M30.3364 27.9494C30.3163 27.8425 30.2562 27.7421 30.1626 27.6485C30.1157 27.6017 30.0556 27.5616 29.9821 27.5348C29.9085 27.5014 29.8216 27.488 29.7213 27.488C29.6477 27.488 29.5742 27.5014 29.514 27.5281C29.4471 27.5481 29.4004 27.5749 29.3737 27.6084V27.1002H30.3232V26.7191H28.9791V28.043H29.3737C29.387 27.9962 29.4205 27.9561 29.4606 27.916C29.5074 27.8758 29.5676 27.8492 29.6612 27.8492C29.7614 27.8492 29.835 27.8892 29.8818 27.9629C29.9219 28.0364 29.942 28.1367 29.942 28.2771C29.942 28.3507 29.942 28.4175 29.9286 28.4777C29.9153 28.5379 29.8885 28.5847 29.8551 28.6248C29.8015 28.6782 29.7347 28.6983 29.6478 28.6983C29.5609 28.6983 29.4873 28.6782 29.4472 28.6248C29.4004 28.5713 29.3737 28.5044 29.3603 28.4108H28.9324C28.9391 28.4977 28.9524 28.5779 28.9792 28.6649C29.0059 28.7451 29.0528 28.8254 29.1263 28.8988C29.1731 28.9457 29.2467 28.9924 29.3336 29.0325C29.4205 29.066 29.5275 29.086 29.6478 29.086C29.7681 29.086 29.8752 29.066 29.9621 29.0325C30.0423 28.9924 30.1159 28.9457 30.1693 28.8922C30.2496 28.812 30.3097 28.7183 30.3365 28.6181C30.3632 28.5245 30.3766 28.4041 30.3766 28.2771C30.3765 28.1634 30.3631 28.0564 30.3364 27.9494Z" fill="#CECECF"/>
<path d="M31.56 26.4719L30.6172 29.3136H31.0183L31.9611 26.4719H31.56Z" fill="#CECECF"/>
<path d="M32.8503 26.7191L32.3689 27.1337V27.5951L32.8503 27.1805V29.066H33.2782V26.7191H32.8503Z" fill="#CECECF"/>
<path d="M34.7227 26.7191L34.2412 27.1337V27.5951L34.7227 27.1805V29.066H35.1506V26.7191H34.7227Z" fill="#CECECF"/>
<path d="M35.9731 27.9228V28.3239H36.9894V27.9228H35.9731Z" fill="#CECECF"/>
<path d="M38.8217 27.1004C38.7816 27.0135 38.7281 26.9399 38.6612 26.8797C38.6011 26.8196 38.5208 26.7727 38.4339 26.746C38.347 26.7125 38.26 26.6992 38.1664 26.6992C38.0662 26.6992 37.9792 26.7125 37.8923 26.746C37.8054 26.7728 37.7318 26.8196 37.6649 26.8797C37.5981 26.9399 37.5446 27.0135 37.5045 27.1004C37.4644 27.1873 37.4509 27.2876 37.4509 27.3945V28.3841C37.4509 28.4978 37.4643 28.5981 37.5045 28.685C37.5445 28.772 37.5981 28.8455 37.6649 28.9057C37.7318 28.9659 37.8054 29.0126 37.8923 29.0393C37.9792 29.0728 38.0662 29.0862 38.1664 29.0862C38.26 29.0862 38.347 29.0728 38.4339 29.0393C38.5208 29.0126 38.6011 28.9659 38.6612 28.9057C38.7281 28.8455 38.7816 28.772 38.8217 28.685C38.8551 28.5981 38.8751 28.4978 38.8751 28.3841V27.3945C38.8751 27.2877 38.8551 27.1874 38.8217 27.1004ZM38.4472 28.3842C38.4472 28.4845 38.4204 28.558 38.3669 28.6182C38.3202 28.6717 38.2466 28.6984 38.1664 28.6984C38.0794 28.6984 38.0059 28.6717 37.9591 28.6182C37.9056 28.558 37.8789 28.4845 37.8789 28.3842V27.4013C37.8789 27.3078 37.9056 27.2275 37.9591 27.1673C38.006 27.1138 38.0794 27.087 38.1664 27.087C38.2466 27.087 38.3202 27.1138 38.3669 27.1673C38.4204 27.2275 38.4472 27.3077 38.4472 27.4013V28.3842Z" fill="#CECECF"/>
<path d="M40.6937 27.1004C40.6537 27.0135 40.6001 26.9399 40.5399 26.8797C40.473 26.8196 40.3996 26.7727 40.3126 26.746C40.2257 26.7125 40.1321 26.6992 40.0384 26.6992C39.9381 26.6992 39.8512 26.7125 39.7643 26.746C39.6774 26.7728 39.6038 26.8196 39.5369 26.8797C39.4701 26.9399 39.4166 27.0135 39.3764 27.1004C39.343 27.1873 39.323 27.2876 39.323 27.3945V28.3841C39.323 28.4978 39.343 28.5981 39.3764 28.685C39.4165 28.772 39.47 28.8455 39.5369 28.9057C39.6038 28.9659 39.6774 29.0126 39.7643 29.0393C39.8512 29.0728 39.9381 29.0862 40.0384 29.0862C40.132 29.0862 40.2256 29.0728 40.3126 29.0393C40.3996 29.0126 40.4731 28.9659 40.5399 28.9057C40.6001 28.8455 40.6537 28.772 40.6937 28.685C40.7338 28.5981 40.7472 28.4978 40.7472 28.3841V27.3945C40.7473 27.2877 40.7339 27.1874 40.6937 27.1004ZM40.3193 28.3842C40.3193 28.4845 40.2925 28.558 40.2458 28.6182C40.1923 28.6717 40.1254 28.6984 40.0385 28.6984C39.9517 28.6984 39.8847 28.6717 39.8313 28.6182C39.7778 28.558 39.751 28.4845 39.751 28.3842V27.4013C39.751 27.3078 39.7778 27.2275 39.8313 27.1673C39.8848 27.1138 39.9517 27.087 40.0385 27.087C40.1254 27.087 40.1923 27.1138 40.2458 27.1673C40.2926 27.2275 40.3193 27.3077 40.3193 27.4013V28.3842Z" fill="#CECECF"/>
<path d="M5.93091 22.7006V22.9146H6.25188V23.9243H6.49262V22.9146H6.81359V22.7006H5.93091Z" fill="#CECECF"/>
<path d="M7.89667 23.0215C7.88331 22.9814 7.87654 22.948 7.85659 22.9145C7.84323 22.881 7.81643 22.8475 7.78303 22.8142C7.74295 22.7741 7.6961 22.7407 7.64267 22.7206C7.58914 22.7006 7.52894 22.6871 7.46214 22.6871C7.38857 22.6871 7.32837 22.7005 7.27493 22.7206C7.22149 22.7407 7.17465 22.7741 7.13457 22.8142C7.10117 22.8476 7.07436 22.8811 7.06101 22.9145C7.04088 22.948 7.0342 22.9814 7.02093 23.0215C7.01425 23.0616 7.01425 23.1085 7.00757 23.1552V23.4694C7.01425 23.5162 7.01425 23.5564 7.02093 23.5965C7.03429 23.6366 7.04097 23.6768 7.06101 23.7102C7.07436 23.737 7.10108 23.7704 7.13457 23.8038C7.17465 23.8439 7.22149 23.8773 7.27493 23.8974C7.32846 23.9242 7.38866 23.9309 7.46214 23.9309C7.52902 23.9309 7.58923 23.9242 7.64267 23.8974C7.6961 23.8773 7.74295 23.8439 7.78303 23.8038C7.81643 23.7704 7.84323 23.7369 7.85659 23.7102C7.87663 23.6768 7.88331 23.6366 7.89667 23.5965C7.90335 23.5564 7.91003 23.5162 7.91003 23.4694V23.1552C7.91003 23.1084 7.90335 23.0616 7.89667 23.0215ZM7.6693 23.4562C7.6693 23.4963 7.66262 23.523 7.65594 23.5497C7.65594 23.5765 7.64926 23.5965 7.64258 23.6099C7.6359 23.6233 7.62245 23.6366 7.60909 23.65C7.59573 23.6701 7.57569 23.6901 7.54897 23.6967C7.52226 23.7101 7.49545 23.7168 7.46205 23.7168C7.42865 23.7168 7.39525 23.7101 7.36845 23.6967C7.34841 23.6901 7.3216 23.67 7.30165 23.65C7.29497 23.6366 7.28152 23.6233 7.27484 23.6099C7.26816 23.5965 7.26148 23.5764 7.26148 23.5497C7.2548 23.5229 7.24812 23.4963 7.24812 23.4562V23.1619C7.24812 23.1285 7.2548 23.095 7.26148 23.0683C7.26148 23.0415 7.26816 23.0215 7.27484 23.0082C7.28152 22.9948 7.29488 22.9814 7.30165 22.968C7.32169 22.948 7.3485 22.9346 7.36845 22.9213C7.39525 22.9079 7.42865 22.9012 7.46205 22.9012C7.49545 22.9012 7.52226 22.9079 7.54897 22.9213C7.57569 22.9346 7.59582 22.9481 7.60909 22.968C7.62245 22.9814 7.6359 22.9948 7.64258 23.0082C7.64926 23.0215 7.65594 23.0416 7.65594 23.0683C7.66262 23.0951 7.6693 23.1285 7.6693 23.1619V23.4562Z" fill="#CECECF"/>
<path d="M9.04671 22.9346C9.03335 22.8878 9.00663 22.8476 8.96646 22.8142C8.93307 22.7742 8.8929 22.7474 8.83946 22.7273C8.79262 22.7072 8.7325 22.7005 8.67229 22.7005H8.19751V23.9242H8.43824V23.4629H8.67221C8.73241 23.4629 8.79253 23.4495 8.83938 23.4294C8.8929 23.4093 8.93298 23.3825 8.96638 23.349C9.00654 23.3156 9.03326 23.2756 9.04662 23.2287C9.06675 23.1819 9.07334 23.1285 9.07334 23.0817C9.07343 23.0282 9.06684 22.9815 9.04671 22.9346ZM8.79262 23.2021C8.75922 23.2289 8.71237 23.2489 8.65885 23.2489H8.43824V22.9146H8.65885C8.71237 22.9146 8.75913 22.928 8.79262 22.9548C8.81934 22.9882 8.83946 23.0282 8.83946 23.0818C8.83946 23.1286 8.81934 23.1687 8.79262 23.2021Z" fill="#CECECF"/>
<path d="M10.1234 22.9146V22.7006H9.32104V23.9243H10.1234V23.7102H9.56178V23.4094H10.0432V23.1954H9.56178V22.9146H10.1234Z" fill="#CECECF"/>
<path d="M10.9525 23.6702C10.9191 23.7036 10.8723 23.717 10.8121 23.717C10.7788 23.717 10.7519 23.7103 10.7252 23.7036C10.6985 23.6902 10.6784 23.6769 10.6583 23.6568C10.6517 23.6435 10.6383 23.6301 10.6316 23.6101C10.6249 23.5967 10.6183 23.5766 10.6116 23.5499C10.6116 23.5231 10.6049 23.4964 10.6049 23.4564C10.6049 23.4162 10.5982 23.3694 10.5982 23.3092C10.5982 23.2491 10.6049 23.2023 10.6049 23.1622C10.6049 23.1288 10.6116 23.0953 10.6116 23.0686C10.6183 23.0418 10.6249 23.0217 10.6316 23.0085C10.6383 22.9951 10.6517 22.975 10.6583 22.9683C10.6784 22.9483 10.6985 22.9282 10.7252 22.9216C10.7519 22.9082 10.7788 22.9015 10.8121 22.9015C10.8723 22.9015 10.9191 22.9149 10.9525 22.9484C10.986 22.9818 11.006 23.0218 11.0194 23.0754H11.2601C11.2401 22.9484 11.1866 22.848 11.1063 22.7879C11.0261 22.7209 10.9258 22.6875 10.8121 22.6875C10.7453 22.6875 10.6784 22.7009 10.6249 22.721C10.5781 22.741 10.5247 22.7745 10.4846 22.8146C10.4578 22.848 10.4311 22.8815 10.411 22.9149C10.3977 22.9484 10.3843 22.9818 10.3776 23.0218C10.3709 23.062 10.3643 23.1088 10.3643 23.1556V23.4698C10.3643 23.5166 10.3709 23.5567 10.3776 23.5969C10.3843 23.637 10.3977 23.6771 10.411 23.7105C10.4311 23.7374 10.4579 23.7708 10.4846 23.8042C10.5247 23.8443 10.5782 23.8777 10.6249 23.8978C10.6785 23.9246 10.7453 23.9312 10.8121 23.9312C10.9258 23.9312 11.0262 23.8978 11.1063 23.8376C11.1866 23.7708 11.2401 23.6771 11.2601 23.5434H11.0194C11.006 23.5966 10.986 23.6367 10.9525 23.6702Z" fill="#CECECF"/>
<path d="M12.3701 23.1552C12.3701 23.1085 12.3634 23.0616 12.3567 23.0215C12.35 22.9814 12.3366 22.948 12.3166 22.9145C12.3033 22.881 12.2766 22.8475 12.2498 22.8142C12.2097 22.7741 12.1628 22.7407 12.1094 22.7206C12.0559 22.7006 11.9957 22.6871 11.9222 22.6871C11.8486 22.6871 11.7884 22.7005 11.735 22.7206C11.6815 22.7407 11.6347 22.7741 11.5945 22.8142C11.5611 22.8476 11.541 22.8811 11.521 22.9145C11.5076 22.948 11.4942 22.9814 11.4876 23.0215C11.4809 23.0616 11.4742 23.1085 11.4742 23.1552C11.4742 23.202 11.4675 23.2488 11.4675 23.309C11.4675 23.3692 11.4742 23.4228 11.4742 23.4695C11.4742 23.5163 11.4809 23.5565 11.4876 23.5966C11.4942 23.6367 11.5076 23.6769 11.521 23.7103C11.541 23.7371 11.561 23.7705 11.5945 23.8039C11.6346 23.844 11.6815 23.8774 11.735 23.8975C11.7884 23.9243 11.8486 23.931 11.9222 23.931C11.9958 23.931 12.056 23.9243 12.1094 23.8975C12.1628 23.8774 12.2097 23.844 12.2498 23.8039C12.2766 23.7705 12.3033 23.737 12.3166 23.7103C12.3367 23.6769 12.35 23.6367 12.3567 23.5966C12.3634 23.5565 12.3701 23.5163 12.3701 23.4695C12.3701 23.4228 12.3768 23.3693 12.3768 23.309C12.3768 23.2488 12.3701 23.202 12.3701 23.1552ZM12.1293 23.4562C12.1293 23.4963 12.1227 23.523 12.1227 23.5497C12.116 23.5765 12.1093 23.5965 12.1026 23.6099C12.0959 23.6233 12.0893 23.6366 12.0759 23.65C12.0558 23.6701 12.0358 23.6901 12.009 23.6967C11.9823 23.7101 11.9555 23.7168 11.9221 23.7168C11.8887 23.7168 11.862 23.7101 11.8352 23.6967C11.8085 23.6901 11.7883 23.67 11.7683 23.65C11.7549 23.6366 11.7483 23.6233 11.7416 23.6099C11.7282 23.5965 11.7282 23.5764 11.7214 23.5497C11.7148 23.5229 11.7148 23.4963 11.7081 23.4562V23.1619C11.7148 23.1285 11.7148 23.095 11.7214 23.0683C11.7281 23.0415 11.7281 23.0215 11.7416 23.0082C11.7483 22.9948 11.7549 22.9814 11.7683 22.968C11.7883 22.948 11.8084 22.9346 11.8352 22.9213C11.862 22.9079 11.8887 22.9012 11.9221 22.9012C11.9555 22.9012 11.9823 22.9079 12.009 22.9213C12.0358 22.9346 12.0559 22.9481 12.0759 22.968C12.0893 22.9814 12.0959 22.9948 12.1026 23.0082C12.1093 23.0215 12.116 23.0416 12.1227 23.0683C12.1227 23.0951 12.1293 23.1285 12.1293 23.1619C12.136 23.202 12.136 23.2488 12.136 23.309C12.136 23.3692 12.136 23.416 12.1293 23.4562Z" fill="#CECECF"/>
<path d="M13.3595 22.7006V23.4495L12.8715 22.7006H12.6575V23.9243H12.8982V23.1687L13.3863 23.9243H13.6002V22.7006H13.3595Z" fill="#CECECF"/>
<path d="M15.2384 23.4563C15.2251 23.4228 15.205 23.3893 15.1782 23.3626C15.1649 23.3493 15.1515 23.3359 15.1382 23.3292C15.1248 23.3159 15.1114 23.3092 15.0847 23.2958C15.185 23.2356 15.2385 23.1554 15.2385 23.035C15.2385 22.9815 15.2252 22.9347 15.2118 22.8946C15.1918 22.8544 15.165 22.821 15.1316 22.7877C15.1049 22.7676 15.0848 22.7542 15.0513 22.7409C15.0446 22.7342 15.0313 22.7275 15.0179 22.7208C14.9644 22.7075 14.9176 22.7008 14.8574 22.7008H14.3694V23.9245H14.8776C14.9377 23.9245 14.9912 23.9111 15.0314 23.8977C15.0782 23.8777 15.1183 23.8575 15.1517 23.8241C15.1851 23.7974 15.2119 23.7573 15.2253 23.7172C15.2453 23.6771 15.2521 23.6237 15.2521 23.5701C15.2518 23.5298 15.2451 23.4896 15.2384 23.4563ZM14.6032 22.9146H14.8372C14.8506 22.9146 14.864 22.9146 14.8707 22.9213C14.9108 22.9213 14.9308 22.928 14.9576 22.9481C14.9844 22.9748 14.9977 23.0083 14.9977 23.0551C14.9977 23.0953 14.9844 23.1287 14.9576 23.1554C14.9241 23.1821 14.8908 23.1955 14.8372 23.1955H14.6032V22.9146ZM14.971 23.6702C14.9443 23.697 14.9041 23.7103 14.8574 23.7103H14.6033V23.4095H14.8574C14.9042 23.4095 14.9443 23.4228 14.971 23.4496C14.9978 23.4764 15.0178 23.5098 15.0178 23.5566C15.0178 23.6034 14.9977 23.6434 14.971 23.6702Z" fill="#CECECF"/>
<path d="M16.0407 22.7006H15.8535L15.4055 23.9243H15.6529L15.7265 23.7036H16.1611L16.2347 23.9243H16.4821L16.0407 22.7006ZM15.7933 23.503L15.9538 23.0617L16.1009 23.503H15.7933Z" fill="#CECECF"/>
<path d="M17.3783 22.7006V23.4495L16.8901 22.7006H16.6829V23.9243H16.9169V23.1687L17.4051 23.9243H17.6191V22.7006H17.3783Z" fill="#CECECF"/>
<path d="M18.5016 23.1819L18.9027 22.7006H18.6152L18.1806 23.2288V22.7006H17.9465V23.9243H18.1806V23.5564L18.3411 23.3625L18.6553 23.9242H18.9361L18.5016 23.1819Z" fill="#CECECF"/>
<path d="M31.2727 15.0378C31.2393 15.0713 31.1924 15.0847 31.1323 15.0847C31.0988 15.0847 31.0721 15.078 31.0454 15.0646C31.0186 15.0579 30.9985 15.0378 30.9785 15.0244C30.9718 15.011 30.9585 14.9976 30.9518 14.9776C30.9451 14.9643 30.9384 14.9442 30.9317 14.9175C30.9317 14.8907 30.9251 14.8573 30.9251 14.8238C30.9251 14.7838 30.9184 14.737 30.9184 14.6768C30.9184 14.6166 30.9251 14.5698 30.9251 14.5297C30.9251 14.4895 30.9317 14.4628 30.9317 14.4361C30.9384 14.4093 30.9451 14.3893 30.9518 14.3759C30.9585 14.3559 30.9718 14.3425 30.9785 14.3291C30.9985 14.3091 31.0186 14.2957 31.0454 14.2823C31.0721 14.2757 31.0988 14.2691 31.1323 14.2691C31.1924 14.2691 31.2393 14.2823 31.2727 14.3158C31.3061 14.3492 31.3262 14.3894 31.3396 14.4428H31.5803C31.5602 14.3091 31.5067 14.2155 31.4265 14.1487C31.3462 14.0885 31.2459 14.0551 31.1323 14.0551C31.0654 14.0551 30.9985 14.0684 30.9518 14.0885C30.8983 14.1086 30.8515 14.142 30.8047 14.1821C30.7779 14.2155 30.7512 14.2489 30.7378 14.2823C30.7177 14.3091 30.7044 14.3491 30.6977 14.3893C30.691 14.4295 30.6843 14.4695 30.6843 14.5163V14.8373C30.6843 14.8841 30.691 14.9243 30.6977 14.9644C30.7044 15.0044 30.7177 15.0379 30.7378 15.0713C30.7511 15.1048 30.7779 15.1382 30.8047 15.1715C30.8515 15.2117 30.8983 15.2452 30.9518 15.2652C30.9986 15.2853 31.0654 15.2986 31.1323 15.2986C31.2459 15.2986 31.3462 15.2652 31.4265 15.1983C31.5067 15.1382 31.5602 15.0378 31.5803 14.9108H31.3396C31.3262 14.9643 31.3061 15.0044 31.2727 15.0378Z" fill="#CECECF"/>
<path d="M32.483 14.7571C32.5164 14.7504 32.5432 14.737 32.5699 14.717C32.5967 14.6968 32.6235 14.6768 32.6435 14.6501C32.6635 14.6233 32.677 14.59 32.6903 14.5565C32.697 14.5363 32.7037 14.5096 32.7037 14.4829C32.7104 14.4695 32.7104 14.4494 32.7104 14.4361C32.7104 14.3893 32.697 14.3358 32.6836 14.2957C32.6635 14.2489 32.6368 14.2088 32.6033 14.1753C32.5699 14.1419 32.5298 14.1152 32.4763 14.0951C32.4496 14.0818 32.4296 14.075 32.3961 14.0683H32.3894C32.3627 14.0616 32.336 14.0616 32.3092 14.0616H31.8345V15.2853H32.0685V14.7972H32.2424L32.4831 15.2853H32.7572L32.483 14.7571ZM32.4229 14.5565C32.3894 14.5833 32.3493 14.6033 32.2959 14.6033H32.0685V14.2756H32.2959C32.3493 14.2756 32.3895 14.2889 32.4229 14.3223C32.4563 14.3491 32.4697 14.3893 32.4697 14.4361C32.4697 14.4896 32.4563 14.5231 32.4229 14.5565Z" fill="#CECECF"/>
<path d="M33.8069 14.2756V14.0617H32.9978V15.2853H33.8069V15.0714H33.2385V14.7771H33.72V14.5632H33.2385V14.2756H33.8069Z" fill="#CECECF"/>
<path d="M34.9637 14.4562C34.9637 14.4428 34.9571 14.4294 34.9571 14.4228C34.9571 14.3893 34.9437 14.3559 34.937 14.3291C34.9237 14.2957 34.9102 14.269 34.8902 14.2422C34.8501 14.182 34.7966 14.1353 34.7364 14.1085C34.6762 14.0817 34.6094 14.0617 34.5224 14.0617H34.0811V15.2853H34.5224C34.6093 15.2853 34.6762 15.272 34.7364 15.2452C34.7699 15.2319 34.7966 15.2118 34.8233 15.1917C34.8501 15.1716 34.8701 15.145 34.8902 15.1115C34.9102 15.0848 34.9236 15.058 34.937 15.0245C34.9437 14.9977 34.9571 14.9644 34.9571 14.931C34.9637 14.8975 34.9637 14.8574 34.9704 14.8173V14.5364C34.9637 14.5096 34.9637 14.483 34.9637 14.4562ZM34.7297 14.8039C34.7297 14.8373 34.723 14.864 34.723 14.8908C34.7163 14.9176 34.7163 14.9376 34.7096 14.9509C34.703 14.9709 34.6895 14.9844 34.6829 14.9977C34.6429 15.0512 34.5826 15.0713 34.5024 15.0713H34.3219V14.2755H34.5024C34.5826 14.2755 34.6429 14.3024 34.6829 14.3558C34.6896 14.3691 34.703 14.3826 34.7096 14.4026C34.7163 14.416 34.7163 14.4361 34.723 14.4628C34.723 14.4895 34.7297 14.5162 34.7297 14.5497V14.8039Z" fill="#CECECF"/>
<path d="M35.2578 14.0617V15.2853H35.4919V14.0617H35.2578Z" fill="#CECECF"/>
<path d="M35.7327 14.0617V14.2756H36.0536V15.2853H36.2877V14.2756H36.6087V14.0617H35.7327Z" fill="#CECECF"/>
<path d="M37.8388 15.0378C37.8054 15.0713 37.7586 15.0847 37.6984 15.0847C37.665 15.0847 37.6383 15.078 37.6115 15.0646C37.5846 15.0579 37.5646 15.0378 37.5446 15.0244C37.5379 15.011 37.5245 14.9976 37.5179 14.9776C37.5112 14.9643 37.5045 14.9442 37.4978 14.9175C37.4978 14.8907 37.4911 14.8573 37.4911 14.8238C37.4845 14.7838 37.4845 14.737 37.4845 14.6768C37.4845 14.6166 37.4845 14.5698 37.4911 14.5297C37.4911 14.4895 37.4978 14.4628 37.4978 14.4361C37.5045 14.4093 37.5112 14.3893 37.5179 14.3759C37.5245 14.3559 37.5379 14.3425 37.5446 14.3291C37.5646 14.3091 37.5846 14.2957 37.6115 14.2823C37.6382 14.2757 37.6649 14.2691 37.6984 14.2691C37.7586 14.2691 37.8053 14.2823 37.8388 14.3158C37.8722 14.3492 37.8924 14.3894 37.9057 14.4428H38.1464C38.1264 14.3091 38.0729 14.2155 37.9926 14.1487C37.9124 14.0885 37.8121 14.0551 37.6985 14.0551C37.6316 14.0551 37.5648 14.0684 37.5113 14.0885C37.4644 14.1086 37.411 14.142 37.3708 14.1821C37.3374 14.2155 37.3174 14.2489 37.2972 14.2823C37.2839 14.3091 37.2705 14.3491 37.2638 14.3893C37.2572 14.4295 37.2505 14.4695 37.2505 14.5163V14.8373C37.2505 14.8841 37.2572 14.9243 37.2638 14.9644C37.2705 15.0044 37.2839 15.0379 37.2972 15.0713C37.3173 15.1048 37.3373 15.1382 37.3708 15.1715C37.4109 15.2117 37.4644 15.2452 37.5113 15.2652C37.5648 15.2853 37.6316 15.2986 37.6985 15.2986C37.8122 15.2986 37.9125 15.2652 37.9926 15.1983C38.0729 15.1382 38.1264 15.0378 38.1464 14.9108H37.9057C37.8924 14.9643 37.8722 15.0044 37.8388 15.0378Z" fill="#CECECF"/>
<path d="M38.8954 14.0617H38.7082L38.2603 15.2853H38.5143L38.5879 15.0714H39.0225L39.0961 15.2853H39.3435L38.8954 14.0617ZM38.6548 14.8707L38.8086 14.4228L38.9556 14.8707H38.6548Z" fill="#CECECF"/>
<path d="M40.1859 14.7571C40.2193 14.7504 40.246 14.737 40.2728 14.717C40.2995 14.6968 40.3263 14.6768 40.3464 14.6501C40.3664 14.6233 40.3798 14.59 40.3932 14.5565C40.4066 14.523 40.4133 14.4829 40.4133 14.4361C40.4133 14.3893 40.4066 14.3358 40.3866 14.2957C40.3665 14.2489 40.3397 14.2088 40.3063 14.1753C40.2729 14.1419 40.2327 14.1152 40.1793 14.0951C40.1325 14.075 40.079 14.0616 40.0188 14.0616H39.5374V15.2853H39.7781V14.7972H39.9453L40.186 15.2853H40.4601L40.1859 14.7571ZM40.1257 14.5565C40.0923 14.5833 40.0521 14.6033 39.9987 14.6033H39.7781V14.2756H39.9987C40.0522 14.2756 40.0923 14.2889 40.1257 14.3223C40.1592 14.3491 40.1725 14.3893 40.1725 14.4361C40.1725 14.4896 40.1592 14.5231 40.1257 14.5565Z" fill="#CECECF"/>
<path d="M41.5832 14.4228C41.5765 14.3893 41.5698 14.3559 41.5565 14.3291C41.5498 14.2957 41.5298 14.269 41.5164 14.2422C41.4696 14.182 41.4161 14.1353 41.3559 14.1085C41.3024 14.0817 41.2289 14.0617 41.142 14.0617H40.7007V15.2853H41.142C41.2289 15.2853 41.3025 15.272 41.3559 15.2452C41.416 15.2184 41.4696 15.1716 41.5164 15.1115C41.5298 15.0848 41.5498 15.058 41.5565 15.0245C41.5698 14.9977 41.5765 14.9644 41.5832 14.931C41.5832 14.8975 41.5899 14.8574 41.5899 14.8173V14.5364C41.5899 14.4962 41.5832 14.4562 41.5832 14.4228ZM41.3492 14.8039C41.3492 14.8373 41.3492 14.864 41.3425 14.8908C41.3425 14.9176 41.3359 14.9376 41.3292 14.9509C41.3225 14.9709 41.3158 14.9844 41.3024 14.9977C41.2623 15.0512 41.2021 15.0713 41.1219 15.0713H40.9413V14.2755H41.1219C41.2021 14.2755 41.2622 14.3024 41.3024 14.3558C41.3157 14.3691 41.3224 14.3826 41.3292 14.4026C41.3359 14.416 41.3425 14.4361 41.3425 14.4628C41.3492 14.4895 41.3492 14.5162 41.3492 14.5497V14.8039Z" fill="#CECECF"/>
<path d="M41.7149 2.98121V7.69382C41.7149 7.88348 41.5597 8.03861 41.3701 8.03861H35.5655C35.3758 8.03861 35.2207 7.88348 35.2207 7.69382V2.98121C35.2207 2.79154 35.3758 2.63641 35.5655 2.63641H41.3701C41.5596 2.63633 41.7149 2.79154 41.7149 2.98121Z" fill="#F7D072"/>
<path opacity="0.2" d="M40.4397 3.77782L41.4494 2.76813H41.1217L40.2525 3.64405L40.1188 3.77782L40.0185 3.87142L39.3298 4.56013H37.8321L37.6983 4.42636L37.1433 3.87142L36.9226 3.64405L36.0467 2.76813H35.7191L36.5883 3.64405L36.7221 3.77782H35.338V4.0051H36.956L37.384 4.43972L37.4976 4.56013V4.82749H35.3379V5.06155H37.4976V5.88394H35.3379V6.11122H37.4976V6.38535H37.511L37.0897 6.80002L36.956 6.93379H35.3379V7.16784H36.722L35.8528 8.03708H36.1804L37.0496 7.16784L37.832 6.38562H39.3297L40.988 8.03717H41.3089L40.4397 7.16793H41.7167V6.93388H40.2123L39.664 6.38562V6.11149H41.7168V5.8842H39.664V5.06181H41.7168V4.82776H39.664V4.56039L40.2123 4.00536H41.7167V3.77808H40.4397V3.77782ZM39.4368 6.15148H37.725V4.7875H39.4368V6.15148Z" fill="white"/>
<path d="M37.7184 4.42639L37.9457 4.65368H38.9888L39.0824 4.56016L39.2162 4.42639H37.7184ZM37.7184 4.42639L37.9457 4.65368H38.9888L39.0824 4.56016L39.2162 4.42639H37.7184ZM37.7184 4.42639L37.9457 4.65368H38.9888L39.0824 4.56016L39.2162 4.42639H37.7184ZM37.7184 4.42639L37.9457 4.65368H38.9888L39.0824 4.56016L39.2162 4.42639H37.7184ZM39.1225 6.15151L38.9888 6.01783H37.9457L37.8187 6.15151H37.8121L37.7185 6.25179H39.2162L39.1225 6.15151ZM37.7184 4.42639L37.9457 4.65368H38.9888L39.0824 4.56016L39.2162 4.42639H37.7184ZM37.384 4.42639V6.25179H39.5505V4.42639H37.384ZM39.3231 6.01783H37.6113V4.65376H39.3231V6.01783ZM37.7184 4.42639L37.9457 4.65368H38.9888L39.0824 4.56016L39.2162 4.42639H37.7184ZM37.7184 4.42639L37.9457 4.65368H38.9888L39.0824 4.56016L39.2162 4.42639H37.7184ZM37.7184 4.42639L37.9457 4.65368H38.9888L39.0824 4.56016L39.2162 4.42639H37.7184ZM37.7184 4.42639L37.9457 4.65368H38.9888L39.0824 4.56016L39.2162 4.42639H37.7184ZM37.7184 4.42639L37.9457 4.65368H38.9888L39.0824 4.56016L39.2162 4.42639H37.7184ZM37.7184 4.42639L37.9457 4.65368H38.9888L39.0824 4.56016L39.2162 4.42639H37.7184Z" fill="#717070"/>
<path d="M36.9345 3.64185L37.1644 3.87177H35.2205V3.64185H36.9345Z" fill="#717070"/>
<path d="M41.7147 3.64185V3.87177H39.7708L40.0006 3.64185H41.7147Z" fill="#717070"/>
<path d="M37.6127 4.69556H35.2205V4.92548H37.6127V4.69556Z" fill="#717070"/>
<path d="M41.7147 4.69556H39.3225V4.92548H41.7147V4.69556Z" fill="#717070"/>
<path d="M37.6127 5.74939H35.2205V5.97931H37.6127V5.74939Z" fill="#717070"/>
<path d="M41.7147 5.74939H39.3225V5.97931H41.7147V5.74939Z" fill="#717070"/>
<path d="M37.1647 6.80267L36.9348 7.03259H35.2205V6.80267H37.1647Z" fill="#717070"/>
<path d="M41.7147 6.80267V7.03259H40.0003L39.7705 6.80267H41.7147Z" fill="#717070"/>
<path d="M37.9479 6.01971L35.9292 8.03839H35.6042L37.6229 6.01971H37.9479Z" fill="#717070"/>
<path d="M41.3316 2.63611L39.313 4.65478H38.988L41.0067 2.63611H41.3316Z" fill="#717070"/>
<path d="M37.9475 4.65478H37.6224L35.6038 2.63611H35.9288L37.9475 4.65478Z" fill="#717070"/>
<path d="M41.331 8.03839H41.006L39.2172 6.24964L39.1215 6.15392L38.9873 6.01971H39.3123L39.4373 6.1447L39.5422 6.24964L39.6672 6.37462L40.0953 6.80273L40.2296 6.93694L40.3253 7.03265L40.4595 7.16686L41.331 8.03839Z" fill="#717070"/>
<path d="M6.94506 4.69553C6.94506 3.97606 7.24178 3.32619 7.71902 2.86055C7.25689 2.40967 6.62549 2.13141 5.92887 2.13141C4.51269 2.13141 3.36475 3.27944 3.36475 4.69553C3.36475 6.11171 4.51277 7.25965 5.92887 7.25965C6.62558 7.25965 7.25698 6.98139 7.71902 6.53051C7.24178 6.06495 6.94506 5.415 6.94506 4.69553Z" fill="#DC3B39"/>
<path d="M9.50915 2.13141C8.81244 2.13141 8.18112 2.40967 7.71899 2.86055C8.19624 3.32619 8.49296 3.97606 8.49296 4.69553C8.49296 5.415 8.19624 6.06487 7.71899 6.53051C8.18112 6.98139 8.81253 7.25965 9.50915 7.25965C10.9253 7.25965 12.0733 6.11162 12.0733 4.69553C12.0733 3.27944 10.9252 2.13141 9.50915 2.13141Z" fill="#E6AB2D"/>
<path d="M8.493 4.69558C8.493 3.9761 8.19628 3.32624 7.71903 2.8606C7.24179 3.32624 6.94507 3.9761 6.94507 4.69558C6.94507 5.41505 7.24179 6.06491 7.71903 6.53056C8.19628 6.065 8.493 5.41505 8.493 4.69558Z" fill="#D67261"/>
<path d="M8.49303 4.69553C8.49303 4.64139 8.49083 4.58778 8.48749 4.53443L7.31784 3.36487C7.23215 3.50558 7.15946 3.65508 7.10181 3.81197L8.45005 5.16021C8.47773 5.00939 8.49303 4.85435 8.49303 4.69553Z" fill="#E6AB2D"/>
<path d="M6.97117 4.33276C6.95439 4.45133 6.94507 4.57235 6.94507 4.69549C6.94507 4.79393 6.95113 4.89096 6.96194 4.98649L8.07402 6.09857C8.1635 5.96226 8.24023 5.81697 8.30272 5.66422L6.97117 4.33276Z" fill="#E6AB2D"/>
<path opacity="0.2" d="M45 16.3551H0V16.9168H45V16.3551Z" fill="#040000"/>
<path opacity="0.2" d="M44.9999 1.43095V29.1398C44.9999 29.9288 44.3513 30.5773 43.5623 30.5773H7.2146L14.3692 23.4228L14.6031 23.1888L14.8706 22.9214L15.0511 22.7409L18.7755 19.0165L18.9694 18.8226V18.8159L19.0964 18.6955L19.1097 18.6821L19.6781 18.1071L19.8586 17.9333L20.875 16.9169L21.4367 16.3552L27.4478 10.3441L29.3802 8.41184L37.6714 0.113818L37.7852 0H43.5623C44.3513 0 44.9999 0.641865 44.9999 1.43095Z" fill="#040000"/>
<defs>
<linearGradient id="paint0_linear_1_493" x1="22.5" y1="0.113621" x2="22.5" y2="30.691" gradientUnits="userSpaceOnUse">
<stop stop-color="#44484A"/>
<stop offset="1" stop-color="#193741"/>
</linearGradient>
</defs>
</svg>
