<svg width="36" height="22" viewBox="0 0 36 22" fill="none" xmlns="http://www.w3.org/2000/svg">
<path d="M22.2628 17.3474C22.2628 18.452 21.3673 19.3474 20.2628 19.3474H14.7852C13.6806 19.3474 12.7852 18.452 12.7852 17.3474V4.31546C12.7852 3.21089 13.6806 2.31546 14.7852 2.31546H20.2628C21.3673 2.31546 22.2628 3.21089 22.2628 4.31546V17.3474Z" fill="#FF5F00"/>
<path d="M13.3869 10.8313C13.3869 8.28881 14.2631 5.95108 15.7297 4.1033C16.5341 3.08991 16.5399 1.53441 15.3651 0.992381C13.9525 0.34061 12.4064 -0.00188753 10.8313 7.82397e-06C4.84832 7.82397e-06 0 4.84979 0 10.8313C0 16.8129 4.84832 21.6627 10.8299 21.6627C12.4061 21.6646 13.9529 21.3219 15.3655 20.6699C16.5397 20.1279 16.5337 18.5733 15.7298 17.5602C14.2633 15.7123 13.3869 13.3743 13.3869 10.8313Z" fill="#EB001B"/>
<path d="M35.048 10.8313C35.048 16.8129 30.1996 21.6627 24.2181 21.6627C22.6421 21.6646 21.0956 21.3221 19.6828 20.6703C18.508 20.1283 18.5139 18.5728 19.3183 17.5594C20.7849 15.7116 21.6611 13.3739 21.6611 10.8313C21.6611 8.28881 20.7849 5.95108 19.3183 4.1033C18.5139 3.08991 18.508 1.5344 19.6828 0.992404C21.0956 0.340618 22.6421 -0.00188755 24.2181 7.82397e-06C30.1996 7.82397e-06 35.048 4.84979 35.048 10.8313Z" fill="#F79E1B"/>
</svg>
