<svg width="75" height="19" viewBox="0 0 75 19" fill="none" xmlns="http://www.w3.org/2000/svg">
<path d="M13.6839 1.43003C12.8057 0.429123 11.2183 1.14441e-05 9.18764 1.14441e-05H3.29394C3.09292 -9.53674e-05 2.89845 0.0715466 2.74555 0.202045C2.59264 0.332544 2.49133 0.51333 2.45985 0.711872L0.00689199 16.2768C-0.00448201 16.349 -6.73583e-05 16.4228 0.0198321 16.4932C0.0397315 16.5635 0.0746426 16.6287 0.12216 16.6842C0.169677 16.7398 0.228671 16.7844 0.295078 16.8149C0.361484 16.8455 0.433724 16.8613 0.506821 16.8612H4.14534L5.05916 11.0651L5.03084 11.2466C5.06172 11.0484 5.16235 10.8678 5.3146 10.7373C5.46686 10.6068 5.66072 10.535 5.86125 10.5347H7.59028C10.987 10.5347 13.6466 9.15506 14.4235 5.16402C14.4466 5.04599 14.4665 4.93111 14.4838 4.81884C14.7147 3.34371 14.4823 2.33966 13.6844 1.43055" fill="#003087"/>
<path d="M58.2272 8.83663C58.0048 10.2971 56.8895 10.2971 55.811 10.2971H55.1972L55.6279 7.57028C55.6541 7.40557 55.7958 7.28439 55.9626 7.28439H56.2443C56.9787 7.28439 57.6722 7.28439 58.03 7.70248C58.2435 7.95271 58.308 8.32411 58.2272 8.83663ZM57.7577 5.02605H53.689C53.5543 5.02612 53.424 5.07421 53.3215 5.1617C53.219 5.24919 53.151 5.37035 53.1298 5.50342L51.4858 15.9358C51.4782 15.9842 51.4812 16.0336 51.4945 16.0807C51.5079 16.1278 51.5312 16.1715 51.563 16.2087C51.5948 16.2459 51.6343 16.2759 51.6787 16.2964C51.7231 16.3169 51.7715 16.3276 51.8205 16.3277H53.9083C54.1029 16.3277 54.2687 16.1861 54.2991 15.9941L54.766 13.0354C54.809 12.761 55.0461 12.558 55.3242 12.558H56.6115C59.2921 12.558 60.8386 11.2618 61.2425 8.6908C61.4245 7.56714 61.2499 6.68374 60.7237 6.06525C60.1451 5.38539 59.1195 5.02553 57.7582 5.02553" fill="#009CDE"/>
<path d="M29.207 8.83664C28.9846 10.2971 27.8693 10.2971 26.7903 10.2971H26.1765L26.6072 7.5703C26.6334 7.40558 26.7751 7.2844 26.9419 7.2844H27.2236C27.958 7.2844 28.6515 7.2844 29.0093 7.70249C29.2233 7.95272 29.2878 8.32412 29.207 8.83664ZM28.7375 5.02606H24.6688C24.3908 5.02606 24.1537 5.22855 24.1102 5.50343L22.4656 15.9358C22.4579 15.9842 22.4609 16.0337 22.4742 16.0808C22.4875 16.128 22.5108 16.1717 22.5426 16.2089C22.5744 16.2462 22.6139 16.2761 22.6584 16.2966C22.7029 16.3171 22.7513 16.3277 22.8003 16.3277H24.7433C25.0214 16.3277 25.258 16.1252 25.3015 15.8503L25.7458 13.0359C25.7888 12.7611 26.0259 12.5586 26.304 12.5586H27.5913C30.2719 12.5586 31.8184 11.2618 32.2223 8.69081C32.4044 7.56715 32.2297 6.68375 31.7035 6.06526C31.1249 5.3854 30.0993 5.02554 28.738 5.02554M38.1837 12.5822C37.9949 13.6953 37.112 14.4429 35.9847 14.4429C35.4197 14.4429 34.967 14.2608 34.6763 13.9167C34.3878 13.5757 34.2798 13.0895 34.371 12.5486C34.5463 11.4449 35.4443 10.6737 36.5544 10.6737C37.1078 10.6737 37.5563 10.8573 37.8532 11.2046C38.1517 11.5545 38.2692 12.0434 38.1837 12.5822ZM40.899 8.78943H38.9507C38.8697 8.78933 38.7913 8.8182 38.7297 8.87083C38.6682 8.92345 38.6274 8.99636 38.6149 9.07638L38.5299 9.6209L38.3936 9.42365C37.9718 8.81146 37.0312 8.60635 36.0922 8.60635C33.9398 8.60635 32.1012 10.2378 31.7434 12.525C31.5572 13.667 31.8216 14.7576 32.4689 15.5188C33.0632 16.2181 33.9115 16.5092 34.9224 16.5092C36.6577 16.5092 37.6198 15.395 37.6198 15.395L37.5327 15.9364C37.525 15.9848 37.528 16.0343 37.5413 16.0815C37.5546 16.1287 37.578 16.1724 37.6099 16.2096C37.6418 16.2469 37.6813 16.2768 37.7259 16.2973C37.7704 16.3177 37.8189 16.3283 37.8679 16.3282H39.6221C39.9002 16.3282 40.1373 16.1263 40.1808 15.8509L41.2342 9.18182C41.2418 9.13337 41.2387 9.08385 41.2254 9.03667C41.212 8.98949 41.1885 8.94578 41.1566 8.90854C41.1247 8.87129 41.0851 8.84141 41.0405 8.82094C40.996 8.80047 40.9475 8.7899 40.8984 8.78996" fill="#003087"/>
<path d="M67.2039 12.5822C67.0151 13.6953 66.1322 14.4429 65.0049 14.4429C64.4399 14.4429 63.9872 14.2608 63.6965 13.9167C63.408 13.5757 63.3 13.0894 63.3912 12.5486C63.5665 11.4449 64.464 10.6737 65.5746 10.6737C66.128 10.6737 66.5765 10.8573 66.8734 11.2046C67.1719 11.5545 67.2894 12.0434 67.2039 12.5822ZM69.9192 8.78943H67.9709C67.8899 8.78933 67.8115 8.8182 67.7499 8.87083C67.6884 8.92345 67.6476 8.99636 67.6351 9.07638L67.5501 9.6209L67.4138 9.42365C66.992 8.81146 66.0514 8.60635 65.1124 8.60635C62.9606 8.60635 61.1219 10.2378 60.7636 12.525C60.5774 13.667 60.8423 14.7576 61.4896 15.5188C62.084 16.2181 62.9322 16.5092 63.9431 16.5092C65.679 16.5092 66.641 15.395 66.641 15.395L66.554 15.9364C66.5461 15.9847 66.5489 16.0342 66.5621 16.0814C66.5753 16.1286 66.5986 16.1723 66.6304 16.2096C66.6622 16.2469 66.7017 16.2768 66.7462 16.2973C66.7907 16.3178 66.8391 16.3283 66.8881 16.3282H68.6418C68.9198 16.3282 69.1569 16.1263 69.201 15.8509L70.2544 9.18182C70.262 9.13337 70.2589 9.08385 70.2456 9.03667C70.2322 8.98949 70.2087 8.94578 70.1768 8.90854C70.1449 8.87129 70.1053 8.84141 70.0607 8.82094C70.0162 8.80047 69.9677 8.7899 69.9186 8.78996" fill="#009CDE"/>
<path d="M51.276 8.78994H49.3172C49.13 8.78994 48.9553 8.88279 48.8504 9.03807L46.1488 13.0165L45.0036 9.19335C44.9686 9.07673 44.8971 8.97448 44.7995 8.90173C44.7019 8.82897 44.5834 8.78959 44.4617 8.78942H42.537C42.483 8.78944 42.4298 8.80234 42.3818 8.82704C42.3339 8.85173 42.2925 8.88752 42.2611 8.93143C42.2297 8.97533 42.2092 9.02609 42.2014 9.07948C42.1935 9.13288 42.1985 9.18738 42.2159 9.23846L44.372 15.5681L42.3439 18.4297C42.3081 18.4805 42.2869 18.5402 42.2827 18.6022C42.2784 18.6642 42.2913 18.7262 42.3199 18.7814C42.3484 18.8366 42.3916 18.8829 42.4447 18.9152C42.4978 18.9476 42.5588 18.9647 42.6209 18.9648H44.5776C44.7623 18.9648 44.9359 18.874 45.0419 18.7219L51.5541 9.32239C51.5894 9.27159 51.6102 9.21206 51.6141 9.15028C51.618 9.08851 51.605 9.02684 51.5763 8.97197C51.5477 8.9171 51.5045 8.87112 51.4516 8.83903C51.3987 8.80694 51.3379 8.78996 51.276 8.78994Z" fill="#003087"/>
<path d="M72.2154 5.31302L70.5451 15.9364C70.5375 15.9848 70.5405 16.0343 70.5539 16.0814C70.5672 16.1285 70.5907 16.1722 70.6225 16.2095C70.6544 16.2467 70.6939 16.2766 70.7384 16.2971C70.7829 16.3176 70.8313 16.3282 70.8803 16.3282H72.5595C72.8375 16.3282 73.0746 16.1258 73.1182 15.8509L74.7649 5.41794C74.7725 5.36951 74.7696 5.32001 74.7563 5.27283C74.7429 5.22565 74.7195 5.18192 74.6877 5.14467C74.6558 5.10741 74.6162 5.07752 74.5717 5.05704C74.5271 5.03657 74.4787 5.026 74.4296 5.02607H72.5506C72.4697 5.02587 72.3914 5.05464 72.3299 5.10719C72.2684 5.15973 72.2278 5.23309 72.2154 5.31302Z" fill="#009CDE"/>
<path d="M13.6839 1.43003C12.8057 0.429123 11.2183 1.14441e-05 9.18764 1.14441e-05H3.29394C3.09292 -9.53674e-05 2.89845 0.0715466 2.74555 0.202045C2.59264 0.332544 2.49133 0.51333 2.45985 0.711872L0.00689199 16.2768C-0.00448201 16.349 -6.73583e-05 16.4228 0.0198321 16.4932C0.0397315 16.5635 0.0746426 16.6287 0.12216 16.6842C0.169677 16.7398 0.228671 16.7844 0.295078 16.8149C0.361484 16.8455 0.433724 16.8613 0.506821 16.8612H4.14534L5.05916 11.0651L5.03084 11.2466C5.06172 11.0484 5.16235 10.8678 5.3146 10.7373C5.46686 10.6068 5.66072 10.535 5.86125 10.5347H7.59028C10.987 10.5347 13.6466 9.15506 14.4235 5.16402C14.4466 5.04599 14.4665 4.93111 14.4838 4.81884C14.7147 3.34371 14.4823 2.33966 13.6844 1.43055" fill="#003087"/>
<path d="M6.04054 4.83823C6.06811 4.66475 6.15661 4.50677 6.29015 4.39265C6.42369 4.27853 6.59353 4.21574 6.76919 4.21555H11.3897C11.9369 4.21555 12.4473 4.25122 12.9136 4.32571C13.1686 4.36673 13.4209 4.42314 13.669 4.49463C13.9509 4.57386 14.2236 4.68252 14.4827 4.81882C14.7145 3.34317 14.4816 2.33964 13.6837 1.43001C12.8051 0.429623 11.2182 0.000511169 9.18752 0.000511169H3.29329C3.09245 0.000654221 2.89824 0.0724106 2.74555 0.202887C2.59286 0.333363 2.4917 0.514011 2.46025 0.712374L0.00624246 16.2757C-0.00520852 16.3479 -0.000869298 16.4218 0.0189614 16.4921C0.0387921 16.5625 0.0736426 16.6277 0.121111 16.6833C0.16858 16.7389 0.227539 16.7836 0.293924 16.8142C0.360309 16.8448 0.432542 16.8606 0.505647 16.8607H4.14469L5.05852 11.064L6.04054 4.83823Z" fill="#003087"/>
<path d="M14.4832 4.81831C14.4652 4.93373 14.4451 5.04881 14.4229 5.16349C13.646 9.154 10.9863 10.5342 7.58965 10.5342H5.86009C5.65959 10.5343 5.46574 10.6062 5.31355 10.7367C5.16136 10.8672 5.06086 11.0479 5.0302 11.246L4.1447 16.8602L3.8929 18.4528C3.88289 18.516 3.88671 18.5807 3.90409 18.6423C3.92148 18.7039 3.95202 18.761 3.9936 18.8097C4.03519 18.8583 4.08684 18.8974 4.14498 18.9242C4.20313 18.951 4.26639 18.9648 4.3304 18.9648H7.39765C7.76066 18.9648 8.06912 18.7004 8.1263 18.3421L8.1562 18.1858L8.73429 14.5221L8.77101 14.3196C8.7985 14.146 8.88704 13.9879 9.02071 13.8737C9.15438 13.7596 9.32441 13.6969 9.50018 13.6969H9.9592C12.9304 13.6969 15.257 12.4904 15.9368 8.99873C16.2201 7.54038 16.0732 6.32177 15.3231 5.46618C15.0849 5.20091 14.8003 4.98136 14.4832 4.81831Z" fill="#009CDE"/>
<path d="M13.6694 4.49469C13.5509 4.45955 13.4286 4.42807 13.3027 4.40027C13.1768 4.37246 13.0467 4.34781 12.9135 4.32683C12.4466 4.25076 11.9367 4.21509 11.389 4.21509H6.76903C6.59317 4.21487 6.42305 4.27759 6.28941 4.39189C6.15577 4.50619 6.06743 4.66453 6.04038 4.83829L5.05836 11.0651L5.03003 11.2461C5.06069 11.0479 5.16119 10.8673 5.31338 10.7367C5.46557 10.6062 5.65942 10.5344 5.85992 10.5342H7.58948C10.9862 10.5342 13.6458 9.15457 14.4227 5.16354C14.4458 5.0455 14.4652 4.93115 14.483 4.81836C14.2779 4.711 14.0642 4.62082 13.8441 4.54872C13.7869 4.52984 13.7287 4.51253 13.6694 4.49469Z" fill="#012169"/>
</svg>
